<svg width="48" height="48" viewBox="0 0 48 48" fill="none" xmlns="http://www.w3.org/2000/svg">
<g id="1" clip-path="url(#clip0_1_2663)">
<g id="Group">
<path id="Vector" d="M0.459033 29.5087C2.09478 45.7153 27.8731 45.1782 39.9093 42.2835C47.6409 40.4241 48.1214 36.708 47.9818 28.7834C47.8918 23.6753 48.3045 10.1529 44.9814 5.89688C39.8769 -0.640592 35.3037 3.45956 28.9824 5.5936C20.8741 8.33081 17.7147 3.44372 10.0003 3.58922C-1.30984 3.80278 -0.385186 21.1441 0.459033 29.5087Z" fill="url(#paint0_linear_1_2663)"/>
<path id="Vector_2" d="M32.8326 46.0161H15.1641C13.6108 46.0161 12.3516 44.7569 12.3516 43.2036V7.51508C12.3516 5.96173 13.6108 4.70258 15.1641 4.70258H32.8326C34.3859 4.70258 35.6451 5.96173 35.6451 7.51508V43.2036C35.6451 44.7569 34.3859 46.0161 32.8326 46.0161Z" fill="#2626BC" fill-opacity="0.0627451"/>
<path id="Vector_3" d="M32.8326 43.7661H15.1641C13.6108 43.7661 12.3516 42.5069 12.3516 40.9536V5.26508C12.3516 3.71173 13.6108 2.45258 15.1641 2.45258H32.8326C34.3859 2.45258 35.6451 3.71173 35.6451 5.26508V40.9536C35.6451 42.5069 34.3859 43.7661 32.8326 43.7661Z" fill="#D9D9FF"/>
<path id="Vector_4" d="M12.3516 6.47528H35.6447V39.7434H12.3516V6.47528Z" fill="white"/>
<path id="Vector_5" d="M35.6447 34.0893V39.7434H12.3516V30.9572L35.6447 34.0893ZM35.6447 6.47528V8.79372L12.3516 13.2956V6.47528H35.6447Z" fill="#6583FE"/>
<path id="Vector_6" d="M32.8326 44.2349H15.1641C13.3548 44.2349 11.8828 42.7629 11.8828 40.9536V5.26508C11.8828 3.45579 13.3548 1.98383 15.1641 1.98383H32.8327C34.6419 1.98383 36.1139 3.45579 36.1139 5.26508V40.9536C36.1138 42.7629 34.6418 44.2349 32.8326 44.2349ZM15.1641 2.92133C13.8717 2.92133 12.8203 3.97273 12.8203 5.26508V40.9536C12.8203 42.246 13.8717 43.2974 15.1641 43.2974H32.8327C34.125 43.2974 35.1764 42.246 35.1764 40.9536V5.26508C35.1764 3.97273 34.125 2.92133 32.8327 2.92133H15.1641Z" fill="#2626BC"/>
<path id="Vector_7" d="M25.6374 5.01862H22.3594C22.2351 5.01862 22.1158 4.96924 22.0279 4.88133C21.94 4.79342 21.8906 4.67419 21.8906 4.54987C21.8906 4.42555 21.94 4.30633 22.0279 4.21842C22.1158 4.13051 22.2351 4.08112 22.3594 4.08112H25.6374C25.7618 4.08112 25.881 4.13051 25.9689 4.21842C26.0568 4.30633 26.1062 4.42555 26.1062 4.54987C26.1062 4.67419 26.0568 4.79342 25.9689 4.88133C25.881 4.96924 25.7618 5.01862 25.6374 5.01862ZM28.2936 4.54969C28.2936 4.67406 28.2442 4.79333 28.1562 4.88128C28.0683 4.96922 27.949 5.01862 27.8246 5.01862C27.7003 5.01862 27.581 4.96922 27.493 4.88128C27.4051 4.79333 27.3557 4.67406 27.3557 4.54969C27.3557 4.42532 27.4051 4.30604 27.493 4.2181C27.581 4.13016 27.7003 4.08075 27.8246 4.08075C27.949 4.08075 28.0683 4.13016 28.1562 4.2181C28.2442 4.30604 28.2936 4.42532 28.2936 4.54969Z" fill="#2626BC"/>
<g id="Group_2">
<path id="Vector_8" d="M29.9133 24.9192H18.0911C17.0915 24.9192 16.2812 24.1089 16.2812 23.1093C16.2812 22.1098 17.0915 21.2995 18.0911 21.2995H29.9132C30.9128 21.2995 31.7231 22.1098 31.7231 23.1093C31.7231 24.1089 30.9128 24.9192 29.9133 24.9192Z" fill="#FF9D33"/>
<path id="Vector_9" d="M22.3457 37.5187H16.75C16.6257 37.5187 16.5065 37.4694 16.4185 37.3814C16.3306 37.2935 16.2813 37.1743 16.2812 37.05V35.6971C16.2812 35.5728 16.3306 35.4535 16.4185 35.3656C16.5065 35.2777 16.6257 35.2283 16.75 35.2283H22.3457C22.47 35.2283 22.5892 35.2777 22.6771 35.3656C22.765 35.4535 22.8144 35.5728 22.8144 35.6971V37.05C22.8144 37.1743 22.765 37.2935 22.6771 37.3814C22.5892 37.4694 22.47 37.5187 22.3457 37.5187Z" fill="#FF6C6C"/>
<path id="Vector_10" d="M29.9133 29.9207H18.0911C17.0915 29.9207 16.2812 29.1104 16.2812 28.1108C16.2812 27.1112 17.0915 26.301 18.0911 26.301H29.9132C30.9128 26.301 31.7231 27.1112 31.7231 28.1108C31.7231 29.1104 30.9128 29.9207 29.9133 29.9207Z" fill="#6583FE"/>
</g>
<path id="Vector_11" d="M23.142 17.7728H16.9844C16.8601 17.7728 16.7408 17.8222 16.6529 17.9101C16.565 17.998 16.5156 18.1173 16.5156 18.2416C16.5156 18.3659 16.565 18.4851 16.6529 18.5731C16.7408 18.661 16.8601 18.7103 16.9844 18.7103H23.142C23.2663 18.7103 23.3855 18.661 23.4734 18.5731C23.5613 18.4851 23.6107 18.3659 23.6107 18.2416C23.6107 18.1173 23.5613 17.998 23.4734 17.9101C23.3855 17.8222 23.2663 17.7728 23.142 17.7728ZM25.4509 18.547L26.4391 16.5281C26.5915 16.2167 26.3647 15.8533 26.018 15.8533C25.9303 15.8533 25.8443 15.8779 25.7699 15.9244C25.6955 15.9708 25.6356 16.0372 25.597 16.116L24.6089 18.1349C24.4564 18.4463 24.6832 18.8097 25.0299 18.8097C25.1176 18.8097 25.2036 18.7851 25.278 18.7387C25.3525 18.6922 25.4124 18.6258 25.4509 18.547ZM23.142 15.9515H16.9844C16.8601 15.9515 16.7408 16.0009 16.6529 16.0888C16.565 16.1767 16.5156 16.2959 16.5156 16.4202C16.5156 16.5445 16.565 16.6638 16.6529 16.7517C16.7408 16.8396 16.8601 16.889 16.9844 16.889H23.142C23.2663 16.889 23.3855 16.8396 23.4734 16.7517C23.5613 16.6638 23.6107 16.5445 23.6107 16.4202C23.6107 16.2959 23.5613 16.1767 23.4734 16.0888C23.3855 16.0009 23.2663 15.9515 23.142 15.9515ZM18.0795 13.7629H16.9844C16.8601 13.7629 16.7408 13.8123 16.6529 13.9002C16.565 13.9881 16.5156 14.1073 16.5156 14.2316C16.5156 14.3559 16.565 14.4752 16.6529 14.5631C16.7408 14.651 16.8601 14.7004 16.9844 14.7004H18.0795C18.2038 14.7004 18.323 14.651 18.4109 14.5631C18.4988 14.4752 18.5482 14.3559 18.5482 14.2316C18.5482 14.1073 18.4988 13.9881 18.4109 13.9002C18.323 13.8123 18.2038 13.7629 18.0795 13.7629Z" fill="#2626BC"/>
<g id="Group_3">
<path id="Vector_12" d="M36.6562 45.2224C36.5319 45.2224 36.4127 45.173 36.3248 45.0851C36.2369 44.9972 36.1875 44.878 36.1875 44.7536C36.1873 44.5962 36.1247 44.4453 36.0134 44.334C35.9021 44.2226 35.7512 44.16 35.5938 44.1598C35.3348 44.1598 35.125 43.95 35.125 43.6911C35.125 43.4321 35.3348 43.2223 35.5938 43.2223C35.7512 43.2221 35.9021 43.1595 36.0134 43.0482C36.1247 42.9369 36.1873 42.786 36.1875 42.6286C36.1875 42.3697 36.3973 42.1599 36.6562 42.1599C36.9152 42.1599 37.125 42.3697 37.125 42.6286C37.1252 42.786 37.1878 42.9369 37.2991 43.0482C37.4104 43.1595 37.5614 43.2221 37.7188 43.2223C37.9777 43.2223 38.1875 43.4321 38.1875 43.6911C38.1875 43.95 37.9777 44.1598 37.7188 44.1598C37.5614 44.16 37.4104 44.2226 37.2991 44.334C37.1878 44.4453 37.1252 44.5962 37.125 44.7536C37.125 44.878 37.0756 44.9972 36.9877 45.0851C36.8998 45.173 36.7805 45.2224 36.6562 45.2224Z" fill="#FF6C6C"/>
<path id="Vector_13" d="M41.4687 15.5643C41.3444 15.5643 41.2252 15.5149 41.1373 15.427C41.0494 15.3391 41 15.2199 41 15.0956C40.9998 14.9382 40.9372 14.7873 40.8259 14.6759C40.7146 14.5646 40.5637 14.502 40.4062 14.5019C40.2819 14.5019 40.1627 14.4525 40.0748 14.3646C39.9869 14.2767 39.9375 14.1574 39.9375 14.0331C39.9375 13.9088 39.9869 13.7896 40.0748 13.7017C40.1627 13.6137 40.2819 13.5644 40.4062 13.5644C40.5637 13.5642 40.7146 13.5016 40.8259 13.3903C40.9372 13.279 40.9998 13.1281 41 12.9706C41 12.8463 41.0494 12.7271 41.1373 12.6392C41.2252 12.5513 41.3444 12.5019 41.4687 12.5019C41.593 12.5019 41.7123 12.5513 41.8002 12.6392C41.8881 12.7271 41.9375 12.8463 41.9375 12.9706C41.9376 13.1281 42.0003 13.279 42.1116 13.3903C42.2229 13.5016 42.3738 13.5642 42.5312 13.5644C42.6555 13.5644 42.7747 13.6137 42.8626 13.7017C42.9506 13.7896 42.9999 13.9088 42.9999 14.0331C42.9999 14.1574 42.9506 14.2767 42.8626 14.3646C42.7747 14.4525 42.6555 14.5019 42.5312 14.5019C42.3738 14.502 42.2229 14.5646 42.1116 14.6759C42.0003 14.7873 41.9376 14.9382 41.9375 15.0956C41.9375 15.2199 41.8881 15.3391 41.8002 15.427C41.7123 15.5149 41.593 15.5643 41.4687 15.5643Z" fill="#6C6CFF"/>
<path id="Vector_14" d="M6.18747 16.9023C6.06315 16.9023 5.94392 16.8529 5.85601 16.765C5.76811 16.6771 5.71872 16.5579 5.71872 16.4336C5.71855 16.2762 5.65594 16.1252 5.54463 16.0139C5.43332 15.9026 5.28241 15.84 5.125 15.8398C5.00068 15.8398 4.88145 15.7905 4.79354 15.7026C4.70564 15.6146 4.65625 15.4954 4.65625 15.3711C4.65625 15.2468 4.70564 15.1275 4.79354 15.0396C4.88145 14.9517 5.00068 14.9023 5.125 14.9023C5.28242 14.9021 5.43333 14.8395 5.54464 14.7282C5.65594 14.6169 5.71855 14.466 5.71872 14.3085C5.71872 14.1842 5.76811 14.065 5.85601 13.9771C5.94392 13.8892 6.06315 13.8398 6.18747 13.8398C6.31179 13.8398 6.43102 13.8892 6.51893 13.9771C6.60683 14.065 6.65622 14.1842 6.65622 14.3085C6.65639 14.466 6.719 14.6169 6.8303 14.7282C6.9416 14.8395 7.09252 14.9021 7.24994 14.9023C7.37426 14.9023 7.49349 14.9517 7.58139 15.0396C7.6693 15.1275 7.71869 15.2468 7.71869 15.3711C7.71869 15.4954 7.6693 15.6146 7.58139 15.7026C7.49349 15.7905 7.37426 15.8398 7.24994 15.8398C7.09253 15.84 6.94161 15.9026 6.83031 16.0139C6.719 16.1252 6.65639 16.2762 6.65622 16.4336C6.65622 16.5579 6.60683 16.6771 6.51893 16.765C6.43102 16.8529 6.31179 16.9023 6.18747 16.9023Z" fill="#FF6C6C"/>
<path id="Vector_15" d="M8.06257 12.0997C8.00099 12.0998 7.94 12.0877 7.88311 12.0642C7.82622 12.0406 7.77455 12.006 7.73107 11.9624L6.7467 10.978C6.70316 10.9345 6.66863 10.8828 6.64506 10.826C6.6215 10.7691 6.60938 10.7082 6.60938 10.6466C6.60938 10.5851 6.6215 10.5241 6.64506 10.4672C6.66863 10.4104 6.70316 10.3587 6.7467 10.3152L7.73107 9.33083C7.81898 9.24293 7.93821 9.19354 8.06252 9.19354C8.18684 9.19354 8.30607 9.24293 8.39398 9.33083L9.37835 10.3152C9.42189 10.3587 9.45642 10.4104 9.47998 10.4672C9.50355 10.5241 9.51567 10.5851 9.51567 10.6466C9.51567 10.7082 9.50355 10.7691 9.47998 10.826C9.45642 10.8828 9.42189 10.9345 9.37835 10.978L8.39398 11.9624C8.35052 12.006 8.29887 12.0406 8.24199 12.0642C8.18512 12.0877 8.12414 12.0998 8.06257 12.0997ZM7.7411 10.6466L8.06257 10.9681L8.38404 10.6466L8.06257 10.3251L7.7411 10.6466ZM40.5961 42.9816C40.5345 42.9816 40.4735 42.9696 40.4166 42.946C40.3598 42.9224 40.3081 42.8878 40.2647 42.8442L39.2803 41.8598C39.2368 41.8163 39.2022 41.7647 39.1787 41.7078C39.1551 41.6509 39.143 41.59 39.143 41.5284C39.143 41.4669 39.1551 41.4059 39.1787 41.3491C39.2022 41.2922 39.2368 41.2405 39.2803 41.197L40.2647 40.2126C40.3082 40.1691 40.3598 40.1346 40.4167 40.111C40.4736 40.0875 40.5345 40.0753 40.5961 40.0753C40.6576 40.0753 40.7186 40.0875 40.7754 40.111C40.8323 40.1346 40.884 40.1691 40.9275 40.2126L41.9118 41.197C41.9554 41.2405 41.9899 41.2922 42.0135 41.3491C42.037 41.4059 42.0492 41.4669 42.0492 41.5284C42.0492 41.59 42.037 41.6509 42.0135 41.7078C41.9899 41.7647 41.9554 41.8163 41.9118 41.8598L40.9275 42.8442C40.884 42.8878 40.8323 42.9224 40.7755 42.9459C40.7186 42.9695 40.6576 42.9816 40.5961 42.9816ZM40.2746 41.5284L40.5961 41.8499L40.9175 41.5284L40.5961 41.207L40.2746 41.5284Z" fill="#FF9D33"/>
</g>
<path id="Vector_16" d="M25.153 11.7932H17.4695C16.9428 11.7932 16.5156 11.3662 16.5156 10.8393C16.5156 10.3126 16.9427 9.88544 17.4695 9.88544H25.153C25.6798 9.88544 26.1069 10.3125 26.1069 10.8393C26.1069 11.3662 25.6799 11.7932 25.153 11.7932Z" fill="white"/>
<path id="Vector_17" d="M25.153 12.2619H17.4695C16.6851 12.2619 16.0469 11.6237 16.0469 10.8392C16.0469 10.0548 16.6851 9.41669 17.4695 9.41669H25.153C25.9374 9.41669 26.5756 10.0548 26.5756 10.8392C26.5756 11.6237 25.9374 12.2619 25.153 12.2619ZM17.4695 10.3542C17.3409 10.3543 17.2176 10.4055 17.1266 10.4964C17.0357 10.5873 16.9845 10.7106 16.9844 10.8392C16.9845 10.9679 17.0357 11.0912 17.1266 11.1822C17.2176 11.2731 17.3409 11.3243 17.4695 11.3244H25.153C25.2816 11.3243 25.4049 11.2731 25.4959 11.1821C25.5868 11.0912 25.6379 10.9679 25.6381 10.8392C25.6379 10.7106 25.5868 10.5874 25.4958 10.4964C25.4049 10.4055 25.2816 10.3543 25.153 10.3542H17.4695Z" fill="#2626BC"/>
</g>
</g>
<defs>
<linearGradient id="paint0_linear_1_2663" x1="11.285" y1="34.7327" x2="35.2162" y2="8.20152" gradientUnits="userSpaceOnUse">
<stop offset="0.049" stop-color="#FFDBED"/>
<stop offset="0.999" stop-color="#D2DEFF"/>
</linearGradient>
<clipPath id="clip0_1_2663">
<rect width="48" height="48" fill="white"/>
</clipPath>
</defs>
</svg>
