<svg width="24" height="24" viewBox="0 0 24 24" fill="none" xmlns="http://www.w3.org/2000/svg">
<g id="vuesax/bold/global">
<path id="Vector" d="M7.6525 20.9101C7.6225 20.9101 7.5825 20.9301 7.5525 20.9301C5.6125 19.9701 4.0325 18.3801 3.0625 16.4401C3.0625 16.4101 3.0825 16.3701 3.0825 16.3401C4.3025 16.7001 5.5625 16.9701 6.8125 17.1801C7.0325 18.4401 7.2925 19.6901 7.6525 20.9101Z" fill="white"/>
<path id="Vector_2" d="M20.9391 16.4501C19.9491 18.4401 18.2991 20.0501 16.2891 21.0201C16.6691 19.7501 16.9891 18.4701 17.1991 17.1801C18.4591 16.9701 19.6991 16.7001 20.9191 16.3401C20.9091 16.3801 20.9391 16.4201 20.9391 16.4501Z" fill="white"/>
<path id="Vector_3" d="M21.0191 7.70998C19.7591 7.32998 18.4891 7.01998 17.1991 6.79998C16.9891 5.50998 16.6791 4.22998 16.2891 2.97998C18.3591 3.96998 20.0291 5.63998 21.0191 7.70998Z" fill="white"/>
<path id="Vector_4" d="M7.64656 3.09006C7.28656 4.31006 7.02656 5.55006 6.81656 6.81006C5.52656 7.01006 4.24656 7.33006 2.97656 7.71006C3.94656 5.70006 5.55656 4.05006 7.54656 3.06006C7.57656 3.06006 7.61656 3.09006 7.64656 3.09006Z" fill="white"/>
<path id="Vector_5" d="M15.4878 6.59C13.1678 6.33 10.8278 6.33 8.50781 6.59C8.75781 5.22 9.07781 3.85 9.52781 2.53C9.54781 2.45 9.53781 2.39 9.54781 2.31C10.3378 2.12 11.1478 2 11.9978 2C12.8378 2 13.6578 2.12 14.4378 2.31C14.4478 2.39 14.4478 2.45 14.4678 2.53C14.9178 3.86 15.2378 5.22 15.4878 6.59Z" fill="white"/>
<path id="Vector_6" d="M6.59 15.49C5.21 15.24 3.85 14.92 2.53 14.47C2.45 14.45 2.39 14.46 2.31 14.45C2.12 13.66 2 12.85 2 12C2 11.16 2.12 10.34 2.31 9.56001C2.39 9.55001 2.45 9.55001 2.53 9.53001C3.86 9.09001 5.21 8.76001 6.59 8.51001C6.34 10.83 6.34 13.17 6.59 15.49Z" fill="white"/>
<path id="Vector_7" d="M21.9963 12C21.9963 12.85 21.8763 13.66 21.6863 14.45C21.6063 14.46 21.5462 14.45 21.4662 14.47C20.1362 14.91 18.7763 15.24 17.4062 15.49C17.6662 13.17 17.6662 10.83 17.4062 8.51001C18.7763 8.76001 20.1462 9.08001 21.4662 9.53001C21.5462 9.55001 21.6063 9.56001 21.6863 9.56001C21.8763 10.35 21.9963 11.16 21.9963 12Z" fill="white"/>
<path id="Vector_8" d="M15.4878 17.4099C15.2378 18.7899 14.9178 20.1499 14.4678 21.4699C14.4478 21.5499 14.4478 21.6099 14.4378 21.6899C13.6578 21.8799 12.8378 21.9999 11.9978 21.9999C11.1478 21.9999 10.3378 21.8799 9.54781 21.6899C9.53781 21.6099 9.54781 21.5499 9.52781 21.4699C9.08781 20.1399 8.75781 18.7899 8.50781 17.4099C9.66781 17.5399 10.8278 17.6299 11.9978 17.6299C13.1678 17.6299 14.3378 17.5399 15.4878 17.4099Z" fill="white"/>
<path id="Vector_9" d="M15.7633 15.7633C13.2622 16.0789 10.7378 16.0789 8.23667 15.7633C7.92111 13.2622 7.92111 10.7378 8.23667 8.23667C10.7378 7.92111 13.2622 7.92111 15.7633 8.23667C16.0789 10.7378 16.0789 13.2622 15.7633 15.7633Z" fill="white"/>
</g>
</svg>
