<svg width="48" height="48" viewBox="0 0 48 48" fill="none" xmlns="http://www.w3.org/2000/svg">
<g id="2">
<g id="Group">
<path id="Vector" d="M47.6225 21.1533C46.5106 16.5208 40.3137 14.8887 36.5897 15.0816C31.6201 15.3391 29.3685 13.7719 30.4575 8.70514C31.0797 5.80995 31.7062 3.84026 27.2217 2.31326C23.3488 0.994668 10.8566 -0.436613 8.25506 4.0227C6.9855 6.19892 11.6585 8.18389 9.45319 11.1243C7.8975 13.1986 3.28744 11.6648 0.796313 14.8665C-0.971531 17.1385 0.142406 20.8609 4.758 22.8356C8.69053 24.518 14.4754 25.4882 15.5347 30.3391C16.0657 32.7706 13.3558 36.1777 14.7149 39.7566C15.7652 42.5225 18.9279 43.7432 23.1044 39.6813C31.3452 31.6665 29.6024 43.1099 30.8528 45.452C32.2853 48.1352 37.2417 47.0371 39.4691 44.792C45.5592 38.6537 49.2287 27.8456 47.6225 21.1533Z" fill="url(#paint0_linear_1_2685)"/>
<g id="Group_2" opacity="0.1">
<path id="Vector_2" d="M16.7316 11.2732H15.6443C15.52 11.2732 15.4008 11.2238 15.3129 11.1359C15.2249 11.048 15.1756 10.9288 15.1756 10.8044C15.1756 10.6801 15.2249 10.5609 15.3129 10.473C15.4008 10.3851 15.52 10.3357 15.6443 10.3357H16.7316C16.8559 10.3357 16.9752 10.3851 17.0631 10.473C17.151 10.5609 17.2004 10.6801 17.2004 10.8044C17.2004 10.9288 17.151 11.048 17.0631 11.1359C16.9752 11.2238 16.8559 11.2732 16.7316 11.2732ZM20.4137 11.2732H19.3264C19.2021 11.2732 19.0829 11.2238 18.995 11.1359C18.9071 11.048 18.8577 10.9288 18.8577 10.8044C18.8577 10.6801 18.9071 10.5609 18.995 10.473C19.0829 10.3851 19.2021 10.3357 19.3264 10.3357H20.4137C20.538 10.3357 20.6572 10.3851 20.7451 10.473C20.833 10.5609 20.8824 10.6801 20.8824 10.8044C20.8824 10.9288 20.833 11.048 20.7451 11.1359C20.6572 11.2238 20.538 11.2732 20.4137 11.2732ZM24.0957 11.2732H23.0085C22.8841 11.2732 22.7649 11.2238 22.677 11.1359C22.5891 11.048 22.5397 10.9288 22.5397 10.8044C22.5397 10.6801 22.5891 10.5609 22.677 10.473C22.7649 10.3851 22.8841 10.3357 23.0085 10.3357H24.0957C24.22 10.3357 24.3392 10.3851 24.4271 10.473C24.5151 10.5609 24.5644 10.6801 24.5644 10.8044C24.5644 10.9288 24.5151 11.048 24.4271 11.1359C24.3392 11.2238 24.22 11.2732 24.0957 11.2732ZM27.7778 11.2732H26.6905C26.5662 11.2732 26.447 11.2238 26.359 11.1359C26.2711 11.048 26.2218 10.9288 26.2218 10.8044C26.2218 10.6801 26.2711 10.5609 26.359 10.473C26.447 10.3851 26.5662 10.3357 26.6905 10.3357H27.7777C27.902 10.3357 28.0213 10.3851 28.1092 10.473C28.1971 10.5609 28.2465 10.6801 28.2465 10.8044C28.2465 10.9287 28.1972 11.048 28.1093 11.1359C28.0214 11.2238 27.9021 11.2732 27.7778 11.2732ZM31.4598 11.2732H30.3726C30.2483 11.2732 30.1291 11.2238 30.0412 11.1359C29.9533 11.048 29.9039 10.9288 29.9039 10.8044C29.9039 10.6801 29.9533 10.5609 30.0412 10.473C30.1291 10.3851 30.2483 10.3357 30.3726 10.3357H31.4598C31.5842 10.3357 31.7034 10.3851 31.7913 10.473C31.8792 10.5609 31.9286 10.6801 31.9286 10.8044C31.9286 10.9288 31.8792 11.048 31.7913 11.1359C31.7034 11.2238 31.5842 11.2732 31.4598 11.2732ZM35.1419 11.2732H34.0546C33.9302 11.2732 33.811 11.2238 33.7231 11.1359C33.6352 11.048 33.5858 10.9288 33.5858 10.8044C33.5858 10.6801 33.6352 10.5609 33.7231 10.473C33.811 10.3851 33.9302 10.3357 34.0546 10.3357H35.1419C35.2662 10.3357 35.3854 10.3851 35.4733 10.473C35.5612 10.5609 35.6106 10.6801 35.6106 10.8044C35.6106 10.9288 35.5612 11.048 35.4733 11.1359C35.3854 11.2238 35.2662 11.2732 35.1419 11.2732ZM11.8033 12.6523H6.18972C6.04053 12.6523 5.89746 12.593 5.79197 12.4875C5.68648 12.382 5.62722 12.2389 5.62722 12.0898V9.51904C5.62722 9.36986 5.68648 9.22678 5.79197 9.1213C5.89746 9.01581 6.04053 8.95654 6.18972 8.95654H11.8034C11.8932 8.95654 11.9817 8.97804 12.0615 9.01924C12.1412 9.06044 12.21 9.12014 12.262 9.19336L13.1749 10.4788C13.2425 10.5739 13.2788 10.6878 13.2788 10.8045C13.2788 10.9212 13.2425 11.0351 13.1749 11.1302L12.262 12.4156C12.2099 12.4888 12.1412 12.5485 12.0614 12.5896C11.9816 12.6308 11.8931 12.6523 11.8033 12.6523ZM7.49997 15.8493H5.75781C5.63349 15.8493 5.51426 15.7999 5.42636 15.712C5.33845 15.6241 5.28906 15.5049 5.28906 15.3806C5.28906 15.2563 5.33845 15.137 5.42636 15.0491C5.51426 14.9612 5.63349 14.9118 5.75781 14.9118H7.49997C7.62429 14.9118 7.74352 14.9612 7.83143 15.0491C7.91933 15.137 7.96872 15.2563 7.96872 15.3806C7.96872 15.5049 7.91933 15.6241 7.83143 15.712C7.74352 15.7999 7.62429 15.8493 7.49997 15.8493ZM11.25 17.76H5.75781C5.63349 17.76 5.51426 17.7107 5.42636 17.6227C5.33845 17.5348 5.28906 17.4156 5.28906 17.2913C5.28906 17.167 5.33845 17.0477 5.42636 16.9598C5.51426 16.8719 5.63349 16.8225 5.75781 16.8225H11.25C11.3743 16.8225 11.4935 16.8719 11.5814 16.9598C11.6693 17.0477 11.7187 17.167 11.7187 17.2913C11.7187 17.4156 11.6693 17.5348 11.5814 17.6227C11.4935 17.7107 11.3743 17.76 11.25 17.76ZM11.25 19.6709H5.75781C5.63349 19.6709 5.51426 19.6215 5.42636 19.5336C5.33845 19.4457 5.28906 19.3264 5.28906 19.2021C5.28906 19.0778 5.33845 18.9586 5.42636 18.8706C5.51426 18.7827 5.63349 18.7334 5.75781 18.7334H11.25C11.3743 18.7334 11.4935 18.7827 11.5814 18.8706C11.6693 18.9586 11.7187 19.0778 11.7187 19.2021C11.7187 19.3264 11.6693 19.4457 11.5814 19.5336C11.4935 19.6215 11.3743 19.6709 11.25 19.6709Z" fill="#2626BC"/>
<g id="Group_3">
<path id="Vector_3" d="M34.342 29.9299H28.7029C28.1901 29.9299 27.7748 30.3452 27.7748 30.8581V35.134H25.5094V21.2953C25.5094 20.7825 25.0941 20.3672 24.5813 20.3672H18.9422C18.4294 20.3672 18.0141 20.7825 18.0141 21.2953V29.0143C17.257 28.6147 16.4356 28.2974 15.5671 28.0747C15.5373 27.6752 15.2301 27.314 14.7453 27.044C15.366 26.4114 15.8297 25.5119 16.041 24.4702C16.1306 24.029 15.7902 23.6172 15.3401 23.6172H9.86583C9.41573 23.6172 9.07533 24.0291 9.16486 24.4702C9.37617 25.512 9.83986 26.4115 10.4606 27.044C9.97589 27.3139 9.66858 27.6751 9.63877 28.0744C5.34445 29.1761 2.21217 32.6089 2.21217 36.6743C2.21217 46.4207 1.86952 45.6456 12.603 45.6456C15.2366 45.6456 17.2021 45.692 18.6707 45.6184C18.7567 45.6447 18.8478 45.659 18.9424 45.659L34.3422 45.6593C34.855 45.6593 35.2703 45.244 35.2703 44.7312V30.8581C35.2701 30.3453 34.8548 29.9299 34.342 29.9299ZM44.1026 8.36743H38.4645C37.9516 8.36743 37.5354 8.78274 37.5354 9.29556V44.7312C37.5354 45.244 37.9516 45.6602 38.4645 45.6602H44.1026C44.6154 45.6602 45.0316 45.244 45.0316 44.7312V9.29556C45.0316 8.78274 44.6154 8.36743 44.1026 8.36743Z" fill="#2626BC"/>
</g>
</g>
<path id="Vector_4" d="M25.5109 19.0453V42.4809C25.5109 42.9937 25.0956 43.4091 24.5828 43.4091H18.9438C18.4309 43.4091 18.0156 42.9937 18.0156 42.4809V19.0453C18.0156 18.5325 18.4309 18.1172 18.9438 18.1172H24.5828C25.0956 18.1172 25.5109 18.5325 25.5109 19.0453Z" fill="#FF9D33"/>
<path id="Vector_5" d="M20.8281 20.9287H22.6984V40.5965H20.8281V20.9287Z" fill="#FFC599"/>
<path id="Vector_6" d="M35.2766 28.6081V42.4812C35.2766 42.994 34.8613 43.4093 34.3484 43.4093H28.7094C28.1966 43.4093 27.7812 42.994 27.7812 42.4812V28.6081C27.7812 28.0952 28.1966 27.6799 28.7094 27.6799H34.3484C34.8613 27.6798 35.2766 28.0952 35.2766 28.6081Z" fill="#FF6C6C"/>
<path id="Vector_7" d="M32.4643 30.4919V40.5973H30.5938V30.4919H32.4643Z" fill="#FF9494"/>
<path id="Vector_8" d="M45.0356 7.0455V42.4811C45.0356 42.9939 44.6193 43.4102 44.1065 43.4102H38.4684C37.9556 43.4102 37.5393 42.9939 37.5393 42.4811V7.0455C37.5393 6.53268 37.9556 6.11737 38.4684 6.11737H44.1065C44.6193 6.11737 45.0356 6.53268 45.0356 7.0455Z" fill="#FF9D33"/>
<path id="Vector_9" d="M40.3518 8.92889H42.2231V40.5967H40.3518V8.92889Z" fill="#FFC599"/>
<path id="Vector_10" d="M11.8089 10.4023H6.19531C6.04613 10.4023 5.90305 10.343 5.79756 10.2375C5.69208 10.132 5.63281 9.98895 5.63281 9.83976V7.26904C5.63281 7.11986 5.69208 6.97678 5.79756 6.8713C5.90305 6.76581 6.04613 6.70654 6.19531 6.70654H11.809C11.8988 6.70654 11.9873 6.72804 12.067 6.76924C12.1468 6.81044 12.2156 6.87014 12.2676 6.94336L13.1805 8.22876C13.2481 8.32393 13.2844 8.43777 13.2844 8.5545C13.2844 8.67123 13.2481 8.78506 13.1805 8.88023L12.2676 10.1656C12.2155 10.2388 12.1467 10.2985 12.067 10.3396C11.9872 10.3808 11.8987 10.4023 11.8089 10.4023Z" fill="#FF6C6C"/>
<path id="Vector_11" d="M12.6096 43.3955C18.3483 43.3955 23.0005 39.3789 23.0005 34.4242C23.0005 29.4695 18.3483 25.4529 12.6096 25.4529C6.8709 25.4529 2.21875 29.4695 2.21875 34.4242C2.21875 39.3789 6.8709 43.3955 12.6096 43.3955Z" fill="#8399FE"/>
<path id="Vector_12" d="M29.6909 43.4101H20.4185C20.3153 43.4101 20.2132 43.3898 20.1178 43.3503C20.0225 43.3108 19.9359 43.2529 19.8629 43.18C19.79 43.107 19.7321 43.0204 19.6926 42.925C19.6531 42.8297 19.6328 42.7275 19.6328 42.6243V40.6871C19.6328 40.5839 19.6531 40.4817 19.6926 40.3864C19.7321 40.2911 19.79 40.2044 19.8629 40.1315C19.9359 40.0585 20.0225 40.0006 20.1178 39.9612C20.2132 39.9217 20.3153 39.9014 20.4185 39.9014H29.6909C29.7941 39.9014 29.8962 39.9217 29.9916 39.9612C30.0869 40.0006 30.1735 40.0585 30.2465 40.1315C30.3195 40.2044 30.3773 40.2911 30.4168 40.3864C30.4563 40.4817 30.4766 40.5839 30.4766 40.6871V42.6243C30.4766 42.7275 30.4563 42.8297 30.4168 42.925C30.3773 43.0204 30.3195 43.107 30.2465 43.18C30.1735 43.2529 30.0869 43.3108 29.9916 43.3503C29.8962 43.3898 29.7941 43.4101 29.6909 43.4101Z" fill="#FFC599"/>
<g id="Group_4">
<path id="Vector_13" d="M22.954 43.4101H21.1484V42.2031C21.1484 41.7045 21.5526 41.3003 22.0513 41.3003C22.5498 41.3003 22.9541 41.7044 22.9541 42.2031V43.4101H22.954ZM25.9609 43.4101H24.1554V42.2031C24.1554 41.7045 24.5595 41.3003 25.0582 41.3003C25.5567 41.3003 25.961 41.7044 25.961 42.2031V43.4101H25.9609ZM28.9679 43.4101H27.1624V42.2031C27.1624 41.7045 27.5666 41.3003 28.0652 41.3003C28.5638 41.3003 28.968 41.7044 28.968 42.2031V43.4101H28.9679Z" fill="#FF9D33"/>
</g>
<path id="Vector_14" d="M29.6909 39.9015H20.4185C20.3153 39.9015 20.2132 39.8812 20.1178 39.8417C20.0225 39.8022 19.9359 39.7444 19.8629 39.6714C19.79 39.5984 19.7321 39.5118 19.6926 39.4165C19.6531 39.3212 19.6328 39.219 19.6328 39.1158V37.1785C19.6328 37.0754 19.6531 36.9732 19.6926 36.8778C19.7321 36.7825 19.79 36.6959 19.8629 36.6229C19.9359 36.55 20.0225 36.4921 20.1178 36.4526C20.2132 36.4131 20.3153 36.3928 20.4185 36.3928H29.6909C29.7941 36.3928 29.8962 36.4131 29.9916 36.4526C30.0869 36.4921 30.1735 36.55 30.2465 36.6229C30.3195 36.6959 30.3773 36.7825 30.4168 36.8778C30.4563 36.9732 30.4766 37.0754 30.4766 37.1785V39.1158C30.4766 39.219 30.4563 39.3212 30.4168 39.4165C30.3773 39.5118 30.3195 39.5984 30.2465 39.6714C30.1735 39.7444 30.0869 39.8022 29.9916 39.8417C29.8962 39.8812 29.7941 39.9015 29.6909 39.9015Z" fill="#F7B37F"/>
<g id="Group_5">
<path id="Vector_15" d="M22.954 39.9016H21.1484V38.6946C21.1484 38.196 21.5526 37.7917 22.0513 37.7917C22.5498 37.7917 22.9541 38.1959 22.9541 38.6946V39.9016H22.954ZM25.9609 39.9016H24.1554V38.6946C24.1554 38.196 24.5595 37.7917 25.0582 37.7917C25.5567 37.7917 25.961 38.1959 25.961 38.6946V39.9016H25.9609ZM28.9679 39.9016H27.1624V38.6946C27.1624 38.196 27.5666 37.7917 28.0652 37.7917C28.5638 37.7917 28.968 38.1959 28.968 38.6946V39.9016H28.9679Z" fill="#FF9D33"/>
</g>
<path id="Vector_16" d="M29.6909 36.3927H20.4185C20.2101 36.3927 20.0103 36.3099 19.8629 36.1626C19.7156 36.0152 19.6328 35.8154 19.6328 35.607V33.6698C19.6328 33.5666 19.6531 33.4644 19.6926 33.3691C19.7321 33.2737 19.79 33.1871 19.8629 33.1141C19.9359 33.0412 20.0225 32.9833 20.1178 32.9438C20.2132 32.9043 20.3153 32.884 20.4185 32.884H29.6909C29.7941 32.884 29.8962 32.9043 29.9916 32.9438C30.0869 32.9833 30.1735 33.0412 30.2465 33.1141C30.3195 33.1871 30.3773 33.2737 30.4168 33.3691C30.4563 33.4644 30.4766 33.5666 30.4766 33.6698V35.607C30.4766 35.7102 30.4563 35.8124 30.4168 35.9077C30.3773 36.003 30.3195 36.0897 30.2465 36.1626C30.1735 36.2356 30.0869 36.2935 29.9916 36.3329C29.8962 36.3724 29.7941 36.3927 29.6909 36.3927Z" fill="#FFC599"/>
<g id="Group_6">
<path id="Vector_17" d="M22.954 36.3928H21.1484V35.1858C21.1484 34.6872 21.5526 34.283 22.0513 34.283C22.5498 34.283 22.9541 34.6871 22.9541 35.1858V36.3928H22.954ZM25.9609 36.3928H24.1554V35.1858C24.1554 34.6872 24.5595 34.283 25.0582 34.283C25.5567 34.283 25.961 34.6871 25.961 35.1858V36.3928H25.9609ZM28.9679 36.3928H27.1624V35.1858C27.1624 34.6872 27.5666 34.283 28.0652 34.283C28.5638 34.283 28.968 34.6871 28.968 35.1858V36.3928H28.9679Z" fill="#FF9D33"/>
</g>
<path id="Vector_18" d="M12.6079 27.8327C14.2467 27.8327 15.5752 27.0012 15.5752 25.9754C15.5752 24.9497 14.2467 24.1182 12.6079 24.1182C10.9691 24.1182 9.64062 24.9497 9.64062 25.9754C9.64062 27.0012 10.9691 27.8327 12.6079 27.8327Z" fill="#FF5BA8"/>
<path id="Vector_19" d="M9.87159 21.3672C9.42149 21.3672 9.08109 21.7791 9.17062 22.2202C9.58499 24.2629 10.967 25.764 12.6088 25.764C14.2506 25.764 15.6325 24.2629 16.047 22.2202C16.1365 21.7791 15.7961 21.3672 15.346 21.3672H9.87159Z" fill="#B7C5FF"/>
<g id="Group_7">
<path id="Vector_20" d="M34.3431 27.2104H28.704C27.9338 27.2104 27.3072 27.8371 27.3072 28.6073V32.4152H25.979V19.0453C25.979 18.2749 25.3523 17.6482 24.5819 17.6482H18.9431C18.1727 17.6482 17.546 18.275 17.546 19.0453V24.3462C17.546 24.4705 17.5954 24.5897 17.6833 24.6776C17.7712 24.7655 17.8904 24.8149 18.0148 24.8149C18.1391 24.8149 18.2583 24.7655 18.3462 24.6776C18.4341 24.5897 18.4835 24.4705 18.4835 24.3462V19.0453C18.4837 18.9234 18.5321 18.8066 18.6183 18.7205C18.7044 18.6343 18.8212 18.5858 18.9431 18.5857H24.5819C24.7038 18.5858 24.8206 18.6343 24.9067 18.7205C24.9929 18.8066 25.0414 18.9234 25.0415 19.0453V32.4152H23.2157C22.4018 29.161 19.6052 26.4718 15.9516 25.4421C15.8595 25.1672 15.6959 24.9076 15.4649 24.673C15.9507 24.0338 16.3154 23.2287 16.5011 22.3133C16.536 22.1421 16.5323 21.9654 16.4902 21.7958C16.4482 21.6263 16.3688 21.4683 16.258 21.3333C16.1471 21.1971 16.0072 21.0874 15.8485 21.0121C15.6898 20.9369 15.5163 20.8979 15.3406 20.8982H9.86629C9.69063 20.8979 9.51713 20.9368 9.35843 21.0121C9.19972 21.0874 9.05983 21.1972 8.94895 21.3334C8.83808 21.4684 8.75873 21.6264 8.71667 21.7959C8.67462 21.9654 8.67092 22.1422 8.70585 22.3133C8.89157 23.2288 9.25635 24.0341 9.74235 24.6733C9.51379 24.9063 9.34954 25.1676 9.25663 25.443C7.17229 26.0301 5.30132 27.1787 3.96519 28.7006C2.5117 30.3559 1.74341 32.3353 1.74341 34.4245C1.74341 34.7262 1.74313 35.0177 1.74276 35.2995C1.73807 39.4956 1.73563 41.6018 2.89316 42.7539C4.05369 43.9091 6.1761 43.8968 10.4045 43.8724C11.0965 43.8684 15.9193 43.8788 16.4213 43.8788C17.8359 43.8788 18.9554 43.854 19.8481 43.7404C20.0245 43.8314 20.22 43.8789 20.4184 43.879L34.3431 43.8783C35.1133 43.8783 35.74 43.2516 35.74 42.4814V28.6073C35.74 27.837 35.1133 27.2104 34.3431 27.2104ZM20.1014 39.1157V37.1785C20.1015 37.0944 20.1349 37.0138 20.1944 36.9544C20.2538 36.895 20.3344 36.8615 20.4184 36.8614H29.6908C29.7748 36.8615 29.8554 36.895 29.9148 36.9544C29.9742 37.0138 30.0077 37.0944 30.0077 37.1785V39.1157C30.0076 39.1998 29.9742 39.2803 29.9148 39.3397C29.8554 39.3992 29.7748 39.4326 29.6908 39.4327H20.4184C20.3344 39.4326 20.2538 39.3992 20.1944 39.3397C20.135 39.2803 20.1015 39.1998 20.1014 39.1157ZM30.0078 35.6069C30.0077 35.691 29.9743 35.7715 29.9149 35.831C29.8554 35.8904 29.7749 35.9238 29.6909 35.9239H20.4184C20.3344 35.9238 20.2538 35.8904 20.1944 35.831C20.135 35.7715 20.1015 35.691 20.1014 35.6069V33.6697C20.1015 33.5857 20.135 33.5051 20.1944 33.4457C20.2538 33.3862 20.3344 33.3528 20.4184 33.3527H29.6908C29.7748 33.3528 29.8554 33.3862 29.9148 33.4457C29.9742 33.5051 30.0076 33.5857 30.0077 33.6697V35.6069H30.0078ZM10.3828 25.359C11.0258 25.9144 11.7924 26.2327 12.6035 26.2327C13.4144 26.2327 14.1808 25.9146 14.8237 25.3596C14.9645 25.5107 15.1019 25.7223 15.1019 25.9757C15.1019 26.7154 13.9344 27.3643 12.6035 27.3643C11.2726 27.3643 10.1051 26.7154 10.1051 25.9757C10.105 25.7268 10.2353 25.5169 10.3828 25.359ZM9.67476 21.9268C9.69778 21.8982 9.72696 21.8751 9.76012 21.8594C9.79328 21.8436 9.82957 21.8355 9.86629 21.8357H15.3406C15.4425 21.8357 15.5043 21.8926 15.5321 21.9267C15.5593 21.9599 15.6018 22.0301 15.5821 22.1269C15.2038 23.9924 13.9788 25.2952 12.6034 25.2952C11.228 25.2952 10.0031 23.9924 9.62469 22.1269C9.61749 22.0919 9.61825 22.0558 9.62691 22.0211C9.63558 21.9865 9.65193 21.9542 9.67476 21.9268ZM10.3992 42.9348C6.43054 42.9578 4.43854 42.9692 3.55457 42.0893C2.6737 41.2124 2.67595 39.1126 2.68026 35.3006C2.68054 35.0184 2.68091 34.7264 2.68091 34.4244C2.68091 30.8538 5.34782 27.6335 9.23048 26.4283C9.53357 27.5087 10.9063 28.3017 12.6033 28.3017C14.301 28.3017 15.674 27.5082 15.9765 26.4273C19.0854 27.3939 21.4648 29.6686 22.2459 32.4152H20.4184C19.7267 32.4152 19.1639 32.978 19.1639 33.6697V35.6069C19.1638 35.893 19.262 36.1704 19.442 36.3927C19.262 36.615 19.1638 36.8924 19.1639 37.1785V39.1157C19.1638 39.4018 19.262 39.6791 19.442 39.9014C19.262 40.1238 19.1638 40.4012 19.1639 40.6873V42.6244C19.1639 42.707 19.1725 42.7876 19.1878 42.8657C18.0944 42.9536 11.0601 42.931 10.3992 42.9348ZM20.1014 42.6244V40.6873C20.1015 40.6032 20.1349 40.5226 20.1944 40.4632C20.2538 40.4037 20.3344 40.3703 20.4184 40.3702H29.6908C29.7748 40.3703 29.8554 40.4037 29.9148 40.4632C29.9742 40.5226 30.0077 40.6032 30.0077 40.6873V42.6244C30.0077 42.7085 29.9742 42.7891 29.9148 42.8485C29.8554 42.9079 29.7748 42.9414 29.6908 42.9415H20.4184C20.3344 42.9414 20.2538 42.9079 20.1944 42.8485C20.135 42.789 20.1015 42.7085 20.1014 42.6244ZM34.8025 42.4813C34.8025 42.7347 34.5964 42.9407 34.3431 42.9407H30.9033C30.9308 42.8375 30.9449 42.7312 30.9453 42.6243V40.6872C30.9453 40.3898 30.8408 40.1166 30.6673 39.9014C30.8473 39.6791 30.9454 39.4017 30.9453 39.1156V37.1784C30.9453 36.881 30.8408 36.6078 30.6673 36.3926C30.8473 36.1703 30.9454 35.8929 30.9453 35.6068V33.6696C30.9453 32.9779 30.3825 32.4151 29.6909 32.4151H28.2447V28.6073C28.2447 28.354 28.4507 28.1479 28.704 28.1479H34.3431C34.5964 28.1479 34.8025 28.354 34.8025 28.6073V42.4813ZM44.1037 5.64819H42.3529C42.2286 5.64819 42.1094 5.69758 42.0215 5.78549C41.9335 5.87339 41.8842 5.99262 41.8842 6.11694C41.8842 6.24126 41.9335 6.36049 42.0215 6.4484C42.1094 6.53631 42.2286 6.58569 42.3529 6.58569H44.1037C44.2255 6.58584 44.3423 6.63431 44.4285 6.72046C44.5146 6.80661 44.5631 6.92342 44.5633 7.04526V42.4813C44.5631 42.6032 44.5146 42.72 44.4285 42.8061C44.3423 42.8923 44.2255 42.9408 44.1037 42.9409H38.4647C38.3429 42.9408 38.2261 42.8923 38.1399 42.8061C38.0538 42.72 38.0053 42.6032 38.0052 42.4813V7.04526C38.0053 6.92342 38.0538 6.80661 38.1399 6.72046C38.2261 6.63431 38.3429 6.58584 38.4647 6.58569H39.8975C40.0218 6.58569 40.1411 6.53631 40.229 6.4484C40.3169 6.36049 40.3663 6.24126 40.3663 6.11694C40.3663 5.99262 40.3169 5.87339 40.229 5.78549C40.1411 5.69758 40.0218 5.64819 39.8975 5.64819H38.4647C37.6944 5.64819 37.0677 6.27501 37.0677 7.04526V42.4813C37.0677 43.2517 37.6944 43.8784 38.4647 43.8784H44.1037C44.874 43.8784 45.5008 43.2516 45.5008 42.4813V7.04526C45.5008 6.27491 44.8739 5.64819 44.1037 5.64819ZM6.19138 10.871H11.805C12.1384 10.871 12.4527 10.7088 12.6458 10.4369L13.5587 9.15154C13.6825 8.977 13.749 8.76832 13.749 8.55435C13.749 8.34038 13.6825 8.1317 13.5587 7.95716L12.6457 6.67166C12.5503 6.53761 12.4242 6.42829 12.278 6.35281C12.1317 6.27732 11.9696 6.23786 11.805 6.23769H6.19138C5.62279 6.23769 5.16013 6.70035 5.16013 7.26894V9.83976C5.16013 10.4084 5.62269 10.871 6.19138 10.871ZM6.09763 7.26904C6.09763 7.21729 6.13973 7.17529 6.19138 7.17529H11.805C11.82 7.17529 11.8347 7.17888 11.848 7.18574C11.8613 7.19261 11.8728 7.20256 11.8814 7.21476L12.7944 8.50016C12.8056 8.51602 12.8117 8.53499 12.8117 8.55444C12.8117 8.57389 12.8056 8.59286 12.7944 8.60872L11.8815 9.89404C11.8729 9.90625 11.8614 9.91622 11.8481 9.9231C11.8348 9.92998 11.82 9.93358 11.805 9.9336H6.19138C6.13973 9.9336 6.09763 9.8916 6.09763 9.83985V7.26904ZM15.6461 9.02319H16.7334C16.8577 9.02319 16.9769 8.97381 17.0648 8.8859C17.1527 8.79799 17.2021 8.67876 17.2021 8.55444C17.2021 8.43012 17.1527 8.31089 17.0648 8.22299C16.9769 8.13508 16.8577 8.08569 16.7334 8.08569H15.6461C15.5218 8.08569 15.4025 8.13508 15.3146 8.22299C15.2267 8.31089 15.1773 8.43012 15.1773 8.55444C15.1773 8.67876 15.2267 8.79799 15.3146 8.8859C15.4025 8.97381 15.5218 9.02319 15.6461 9.02319ZM5.75948 13.5993H7.50163C7.62595 13.5993 7.74518 13.5499 7.83309 13.462C7.921 13.3741 7.97038 13.2549 7.97038 13.1306C7.97038 13.0062 7.921 12.887 7.83309 12.7991C7.74518 12.7112 7.62595 12.6618 7.50163 12.6618H5.75948C5.63516 12.6618 5.51593 12.7112 5.42802 12.7991C5.34011 12.887 5.29073 13.0062 5.29073 13.1306C5.29073 13.2549 5.34011 13.3741 5.42802 13.462C5.51593 13.5499 5.63516 13.5993 5.75948 13.5993ZM11.2516 14.5725H5.75948C5.69792 14.5725 5.63696 14.5847 5.58009 14.6082C5.52322 14.6318 5.47155 14.6663 5.42802 14.7098C5.38449 14.7534 5.34996 14.805 5.32641 14.8619C5.30285 14.9188 5.29073 14.9797 5.29073 15.0413C5.29073 15.1028 5.30285 15.1638 5.32641 15.2207C5.34996 15.2775 5.38449 15.3292 5.42802 15.3727C5.47155 15.4163 5.52322 15.4508 5.58009 15.4744C5.63696 15.4979 5.69792 15.51 5.75948 15.51H11.2516C11.3132 15.51 11.3741 15.4979 11.431 15.4744C11.4879 15.4508 11.5396 15.4163 11.5831 15.3727C11.6266 15.3292 11.6611 15.2775 11.6847 15.2207C11.7083 15.1638 11.7204 15.1028 11.7204 15.0413C11.7204 14.9797 11.7083 14.9188 11.6847 14.8619C11.6611 14.805 11.6266 14.7534 11.5831 14.7098C11.5396 14.6663 11.4879 14.6318 11.431 14.6082C11.3741 14.5847 11.3132 14.5725 11.2516 14.5725ZM11.2516 16.4833H5.75948C5.63516 16.4833 5.51593 16.5327 5.42802 16.6206C5.34011 16.7086 5.29073 16.8278 5.29073 16.9521C5.29073 17.0764 5.34011 17.1956 5.42802 17.2836C5.51593 17.3715 5.63516 17.4208 5.75948 17.4208H11.2516C11.376 17.4208 11.4952 17.3715 11.5831 17.2836C11.671 17.1956 11.7204 17.0764 11.7204 16.9521C11.7204 16.8278 11.671 16.7086 11.5831 16.6206C11.4952 16.5327 11.376 16.4833 11.2516 16.4833ZM19.3281 9.02319H20.4153C20.5396 9.02319 20.6589 8.97381 20.7468 8.8859C20.8347 8.79799 20.8841 8.67876 20.8841 8.55444C20.8841 8.43012 20.8347 8.31089 20.7468 8.22299C20.6589 8.13508 20.5396 8.08569 20.4153 8.08569H19.3281C19.2038 8.08569 19.0846 8.13508 18.9966 8.22299C18.9087 8.31089 18.8594 8.43012 18.8594 8.55444C18.8594 8.67876 18.9087 8.79799 18.9966 8.8859C19.0846 8.97381 19.2038 9.02319 19.3281 9.02319ZM23.0101 9.02319H24.0974C24.2217 9.02319 24.3409 8.97381 24.4288 8.8859C24.5167 8.79799 24.5661 8.67876 24.5661 8.55444C24.5661 8.43012 24.5167 8.31089 24.4288 8.22299C24.3409 8.13508 24.2217 8.08569 24.0974 8.08569H23.0101C22.8858 8.08569 22.7666 8.13508 22.6787 8.22299C22.5908 8.31089 22.5414 8.43012 22.5414 8.55444C22.5414 8.67876 22.5908 8.79799 22.6787 8.8859C22.7666 8.97381 22.8858 9.02319 23.0101 9.02319ZM26.6922 9.02319H27.7794C27.9037 9.02319 28.0229 8.97381 28.1108 8.8859C28.1987 8.79799 28.2481 8.67876 28.2481 8.55444C28.2481 8.43012 28.1987 8.31089 28.1108 8.22299C28.0229 8.13508 27.9037 8.08569 27.7794 8.08569H26.6922C26.5678 8.08569 26.4486 8.13508 26.3607 8.22299C26.2728 8.31089 26.2234 8.43012 26.2234 8.55444C26.2234 8.67876 26.2728 8.79799 26.3607 8.8859C26.4486 8.97381 26.5678 9.02319 26.6922 9.02319ZM30.3742 9.02319H31.4614C31.5857 9.02319 31.705 8.97381 31.7929 8.8859C31.8808 8.79799 31.9302 8.67876 31.9302 8.55444C31.9302 8.43012 31.8808 8.31089 31.7929 8.22299C31.705 8.13508 31.5857 8.08569 31.4614 8.08569H30.3742C30.2499 8.08569 30.1306 8.13508 30.0427 8.22299C29.9548 8.31089 29.9054 8.43012 29.9054 8.55444C29.9054 8.67876 29.9548 8.79799 30.0427 8.8859C30.1306 8.97381 30.2499 9.02319 30.3742 9.02319ZM34.0562 9.02319H35.1435C35.2679 9.02319 35.3871 8.97381 35.475 8.8859C35.5629 8.79799 35.6123 8.67876 35.6123 8.55444C35.6123 8.43012 35.5629 8.31089 35.475 8.22299C35.3871 8.13508 35.2679 8.08569 35.1435 8.08569H34.0562C33.9319 8.08569 33.8127 8.13508 33.7248 8.22299C33.6369 8.31089 33.5875 8.43012 33.5875 8.55444C33.5875 8.67876 33.6369 8.79799 33.7248 8.8859C33.8127 8.97381 33.9319 9.02319 34.0562 9.02319Z" fill="#2626BC"/>
</g>
<path id="Vector_21" d="M12.6063 40.4597C15.4351 40.4597 17.7282 38.1665 17.7282 35.3378C17.7282 32.509 15.4351 30.2158 12.6063 30.2158C9.77754 30.2158 7.48438 32.509 7.48438 35.3378C7.48438 38.1665 9.77754 40.4597 12.6063 40.4597Z" fill="#FFC599"/>
<path id="Vector_22" d="M12.6086 39.1495C14.7137 39.1495 16.4202 37.4429 16.4202 35.3378C16.4202 33.2327 14.7137 31.5261 12.6086 31.5261C10.5034 31.5261 8.79688 33.2327 8.79688 35.3378C8.79688 37.4429 10.5034 39.1495 12.6086 39.1495Z" fill="#FF9D33"/>
<path id="Vector_23" d="M14.2064 36.0273C14.2064 35.3887 13.687 34.8692 13.0483 34.8692H12.1581C12.0365 34.8692 11.9375 34.7703 11.9375 34.6487C11.9375 34.5271 12.0365 34.4281 12.1581 34.4281H13.5906C13.7149 34.4281 13.8341 34.3787 13.922 34.2908C14.01 34.2029 14.0593 34.0836 14.0593 33.9593C14.0593 33.835 14.01 33.7158 13.922 33.6279C13.8341 33.54 13.7149 33.4906 13.5906 33.4906H13.072V33.446C13.072 33.3217 13.0226 33.2025 12.9347 33.1146C12.8468 33.0267 12.7275 32.9773 12.6032 32.9773C12.4789 32.9773 12.3597 33.0267 12.2718 33.1146C12.1839 33.2025 12.1345 33.3217 12.1345 33.446V33.4918C11.5069 33.5045 11 34.0181 11 34.6487C11 35.2872 11.5195 35.8067 12.1581 35.8067H13.0483C13.1068 35.8067 13.1629 35.83 13.2042 35.8714C13.2456 35.9127 13.2689 35.9688 13.2689 36.0273C13.2689 36.0857 13.2456 36.1418 13.2042 36.1831C13.1629 36.2245 13.1068 36.2477 13.0483 36.2478H11.6158C11.4915 36.2478 11.3723 36.2971 11.2844 36.3851C11.1965 36.473 11.1471 36.5922 11.1471 36.7165C11.1471 36.8408 11.1965 36.9601 11.2844 37.048C11.3723 37.1359 11.4915 37.1853 11.6158 37.1853H12.1345V37.2298C12.1345 37.3541 12.1839 37.4733 12.2718 37.5613C12.3597 37.6492 12.4789 37.6985 12.6032 37.6985C12.7275 37.6985 12.8468 37.6492 12.9347 37.5613C13.0226 37.4733 13.072 37.3541 13.072 37.2298V37.184C13.6996 37.1713 14.2064 36.6578 14.2064 36.0273Z" fill="white"/>
<path id="Vector_24" d="M35.6604 5.74677C35.5988 5.74685 35.5378 5.73476 35.4809 5.71119C35.4241 5.68762 35.3724 5.65304 35.3289 5.60943L34.8635 5.14405L34.3982 5.60943C34.3548 5.65387 34.3031 5.68926 34.246 5.71355C34.1889 5.73785 34.1276 5.75057 34.0655 5.75096C34.0034 5.75136 33.9419 5.73943 33.8845 5.71587C33.8271 5.69231 33.775 5.65758 33.7311 5.6137C33.6872 5.56983 33.6524 5.51767 33.6289 5.46026C33.6053 5.40286 33.5934 5.34134 33.5938 5.27929C33.5941 5.21723 33.6069 5.15587 33.6311 5.09876C33.6554 5.04166 33.6908 4.98994 33.7352 4.94662L34.5321 4.14974C34.62 4.06184 34.7393 4.01245 34.8636 4.01245C34.9879 4.01245 35.1071 4.06184 35.195 4.14974L35.9919 4.94662C36.0575 5.01214 36.1022 5.09567 36.1204 5.18663C36.1385 5.27758 36.1292 5.37187 36.0937 5.45755C36.0582 5.54323 35.9981 5.61645 35.921 5.66794C35.8438 5.71943 35.7531 5.74686 35.6604 5.74677Z" fill="#6583FE"/>
<path id="Vector_25" d="M39.1094 3.36994C39.0479 3.37003 38.9869 3.35794 38.93 3.33439C38.8731 3.31084 38.8215 3.27627 38.778 3.23269L38.3125 2.76722L37.8471 3.23269C37.7592 3.32058 37.6399 3.36995 37.5156 3.36993C37.3913 3.36992 37.2721 3.32051 37.1842 3.2326C37.0963 3.14469 37.0469 3.02546 37.0469 2.90114C37.0469 2.77682 37.0963 2.6576 37.1842 2.56969L37.981 1.77291C38.069 1.68508 38.1882 1.63574 38.3124 1.63574C38.4367 1.63574 38.5559 1.68508 38.6439 1.77291L39.4407 2.56969C39.5286 2.6576 39.578 2.77682 39.578 2.90114C39.578 3.02546 39.5286 3.14469 39.4407 3.2326C39.3973 3.27621 39.3457 3.3108 39.2888 3.33437C39.2319 3.35794 39.171 3.37003 39.1094 3.36994Z" fill="#FF9D33"/>
<path id="Vector_26" d="M29.8088 20.9848C29.7473 20.9849 29.6863 20.9728 29.6294 20.9492C29.5725 20.9257 29.5208 20.8911 29.4773 20.8475L29.012 20.3821L28.5466 20.8475C28.5033 20.8919 28.4516 20.9273 28.3945 20.9516C28.3374 20.9759 28.276 20.9886 28.2139 20.989C28.1519 20.9894 28.0904 20.9775 28.033 20.9539C27.9755 20.9303 27.9234 20.8956 27.8795 20.8517C27.8356 20.8079 27.8009 20.7557 27.7773 20.6983C27.7537 20.6409 27.7418 20.5794 27.7422 20.5173C27.7426 20.4553 27.7553 20.3939 27.7796 20.3368C27.8039 20.2797 27.8393 20.228 27.8837 20.1847L28.6806 19.3878C28.7685 19.2999 28.8877 19.2505 29.012 19.2505C29.1363 19.2505 29.2556 19.2999 29.3435 19.3878L30.1403 20.1847C30.206 20.2502 30.2507 20.3337 30.2688 20.4247C30.2869 20.5156 30.2777 20.6099 30.2422 20.6956C30.2067 20.7813 30.1465 20.8545 30.0694 20.906C29.9923 20.9575 29.9016 20.9849 29.8088 20.9848Z" fill="#FF6C6C"/>
<path id="Vector_27" d="M30.626 15.647C30.5469 15.647 30.4666 15.627 30.393 15.5847L30.3838 15.5794C30.3304 15.5487 30.2836 15.5078 30.246 15.4591C30.2084 15.4103 30.1808 15.3547 30.1647 15.2952C30.1486 15.2358 30.1444 15.1738 30.1523 15.1128C30.1602 15.0517 30.18 14.9928 30.2107 14.9394C30.2414 14.886 30.2822 14.8392 30.331 14.8016C30.3797 14.764 30.4354 14.7364 30.4948 14.7204C30.5542 14.7043 30.6163 14.7001 30.6773 14.708C30.7384 14.7159 30.7973 14.7357 30.8506 14.7664L30.8599 14.7717C30.9496 14.8231 31.0197 14.9028 31.0594 14.9982C31.0991 15.0936 31.1062 15.1995 31.0795 15.2993C31.0528 15.3992 30.9939 15.4874 30.9119 15.5503C30.8299 15.6132 30.7294 15.6472 30.626 15.647ZM32.9606 16.9949C32.8814 16.9949 32.8012 16.9748 32.7276 16.9325L32.7183 16.9272C32.6105 16.8653 32.5317 16.7631 32.4993 16.6431C32.4668 16.5231 32.4833 16.3951 32.5453 16.2873C32.6072 16.1795 32.7094 16.1007 32.8294 16.0682C32.9494 16.0357 33.0774 16.0523 33.1852 16.1142L33.1945 16.1195C33.2841 16.171 33.3543 16.2506 33.394 16.346C33.4337 16.4414 33.4408 16.5473 33.4141 16.6472C33.3874 16.747 33.3285 16.8352 33.2464 16.8981C33.1644 16.961 33.0639 16.995 32.9606 16.9949Z" fill="#6583FE"/>
<path id="Vector_28" d="M30.6261 15.647C30.547 15.647 30.4667 15.627 30.3931 15.5847L30.3838 15.5794C30.3305 15.5487 30.2836 15.5078 30.246 15.4591C30.2085 15.4103 30.1808 15.3547 30.1648 15.2952C30.1487 15.2358 30.1445 15.1738 30.1524 15.1128C30.1603 15.0517 30.1801 14.9928 30.2108 14.9394C30.2414 14.886 30.2823 14.8392 30.3311 14.8016C30.3798 14.764 30.4355 14.7364 30.4949 14.7204C30.5543 14.7043 30.6163 14.7001 30.6774 14.708C30.7384 14.7159 30.7973 14.7357 30.8507 14.7664L30.86 14.7717C30.9496 14.8231 31.0198 14.9028 31.0595 14.9982C31.0992 15.0936 31.1063 15.1995 31.0796 15.2993C31.0529 15.3992 30.994 15.4874 30.912 15.5503C30.8299 15.6132 30.7294 15.6472 30.6261 15.647ZM32.9607 16.9949C32.8815 16.9949 32.8013 16.9748 32.7277 16.9325L32.7184 16.9272C32.6106 16.8653 32.5318 16.7631 32.4993 16.6431C32.4669 16.5231 32.4834 16.3951 32.5453 16.2873C32.6073 16.1795 32.7095 16.1007 32.8295 16.0682C32.9495 16.0357 33.0775 16.0523 33.1853 16.1142L33.1946 16.1195C33.2842 16.171 33.3543 16.2506 33.3941 16.346C33.4338 16.4414 33.4408 16.5473 33.4142 16.6472C33.3875 16.747 33.3285 16.8352 33.2465 16.8981C33.1645 16.961 33.064 16.995 32.9607 16.9949ZM32.9523 15.647C32.849 15.6472 32.7485 15.6132 32.6664 15.5503C32.5844 15.4874 32.5255 15.3992 32.4988 15.2993C32.4721 15.1995 32.4792 15.0936 32.5189 14.9982C32.5586 14.9028 32.6288 14.8231 32.7184 14.7717L32.7277 14.7664C32.8355 14.7045 32.9635 14.6879 33.0835 14.7204C33.2035 14.7528 33.3057 14.8316 33.3676 14.9394C33.4295 15.0472 33.4461 15.1752 33.4136 15.2952C33.3812 15.4152 33.3024 15.5175 33.1946 15.5794L33.1853 15.5847C33.1144 15.6255 33.0341 15.647 32.9523 15.647ZM30.6178 16.9949C30.5145 16.995 30.414 16.961 30.332 16.8981C30.2499 16.8352 30.191 16.747 30.1643 16.6472C30.1376 16.5473 30.1447 16.4414 30.1844 16.346C30.2241 16.2506 30.2943 16.171 30.3839 16.1195L30.3932 16.1142C30.501 16.0523 30.629 16.0357 30.749 16.0682C30.8084 16.0843 30.8641 16.1119 30.9129 16.1495C30.9616 16.1871 31.0025 16.2339 31.0332 16.2873C31.0638 16.3407 31.0836 16.3995 31.0915 16.4606C31.0994 16.5216 31.0952 16.5837 31.0792 16.6431C31.0631 16.7025 31.0355 16.7582 30.9979 16.8069C30.9603 16.8557 30.9135 16.8965 30.8601 16.9272L30.8508 16.9325C30.7799 16.9734 30.6996 16.9949 30.6178 16.9949Z" fill="#6583FE"/>
<path id="Vector_29" d="M32.9523 15.647C32.849 15.6472 32.7485 15.6132 32.6664 15.5503C32.5844 15.4874 32.5255 15.3991 32.4988 15.2993C32.4721 15.1994 32.4792 15.0936 32.5189 14.9981C32.5586 14.9027 32.6288 14.8231 32.7184 14.7717L32.7277 14.7663C32.8355 14.7044 32.9635 14.6879 33.0835 14.7203C33.2035 14.7528 33.3057 14.8316 33.3676 14.9394C33.4295 15.0472 33.4461 15.1752 33.4136 15.2952C33.3812 15.4152 33.3024 15.5174 33.1946 15.5793L33.1853 15.5847C33.1144 15.6255 33.0341 15.647 32.9523 15.647ZM30.6178 16.9949C30.5145 16.995 30.414 16.961 30.332 16.8981C30.2499 16.8352 30.191 16.747 30.1643 16.6471C30.1376 16.5473 30.1447 16.4414 30.1844 16.346C30.2241 16.2506 30.2943 16.171 30.3839 16.1195L30.3932 16.1142C30.501 16.0523 30.629 16.0357 30.749 16.0682C30.8084 16.0842 30.8641 16.1119 30.9129 16.1495C30.9616 16.187 31.0025 16.2339 31.0332 16.2872C31.0638 16.3406 31.0836 16.3995 31.0915 16.4606C31.0994 16.5216 31.0952 16.5836 31.0792 16.6431C31.0631 16.7025 31.0355 16.7582 30.9979 16.8069C30.9603 16.8557 30.9135 16.8965 30.8601 16.9272L30.8508 16.9325C30.7799 16.9733 30.6996 16.9948 30.6178 16.9949ZM31.7892 14.9757C31.6649 14.9757 31.5457 14.9263 31.4578 14.8384C31.3699 14.7505 31.3205 14.6313 31.3205 14.5069V14.4963C31.3205 14.372 31.3699 14.2528 31.4578 14.1649C31.5457 14.077 31.6649 14.0276 31.7892 14.0276C31.9136 14.0276 32.0328 14.077 32.1207 14.1649C32.2086 14.2528 32.258 14.372 32.258 14.4963V14.5069C32.258 14.6313 32.2086 14.7505 32.1207 14.8384C32.0328 14.9263 31.9136 14.9757 31.7892 14.9757ZM31.7892 17.6714C31.6649 17.6714 31.5457 17.622 31.4578 17.5341C31.3699 17.4462 31.3205 17.3269 31.3205 17.2026V17.1919C31.3205 17.0676 31.3699 16.9484 31.4578 16.8605C31.5457 16.7726 31.6649 16.7232 31.7892 16.7232C31.9136 16.7232 32.0328 16.7726 32.1207 16.8605C32.2086 16.9484 32.258 17.0676 32.258 17.1919V17.2026C32.258 17.3269 32.2086 17.4462 32.1207 17.5341C32.0328 17.622 31.9136 17.6714 31.7892 17.6714Z" fill="#6583FE"/>
<path id="Vector_30" d="M2.71976 23.4354C2.64064 23.4354 2.56039 23.4153 2.48679 23.373L2.47751 23.3677C2.3697 23.3058 2.2909 23.2036 2.25844 23.0836C2.22599 22.9636 2.24254 22.8356 2.30445 22.7278C2.36636 22.6199 2.46856 22.5411 2.58857 22.5087C2.70859 22.4762 2.83658 22.4928 2.94439 22.5547L2.95367 22.56C3.04332 22.6115 3.11346 22.6911 3.15317 22.7865C3.19289 22.8819 3.19995 22.9878 3.17327 23.0876C3.14659 23.1875 3.08766 23.2757 3.00564 23.3386C2.92362 23.4015 2.82311 23.4355 2.71976 23.4354ZM5.05423 24.7832C4.9751 24.7832 4.89485 24.7632 4.82126 24.7209L4.81198 24.7155C4.70417 24.6536 4.62537 24.5514 4.59291 24.4314C4.57684 24.372 4.57263 24.31 4.58053 24.2489C4.58842 24.1879 4.60826 24.129 4.63892 24.0756C4.66957 24.0222 4.71044 23.9754 4.75919 23.9378C4.80794 23.9002 4.86362 23.8726 4.92304 23.8565C5.04305 23.8241 5.17104 23.8406 5.27885 23.9025L5.28814 23.9079C5.37779 23.9593 5.44792 24.0389 5.48764 24.1343C5.52736 24.2298 5.53442 24.3356 5.50774 24.4355C5.48106 24.5353 5.42213 24.6236 5.34011 24.6865C5.25809 24.7493 5.15758 24.7834 5.05423 24.7832Z" fill="#FF7EB8"/>
<path id="Vector_31" d="M2.71993 23.4354C2.64081 23.4354 2.56056 23.4153 2.48696 23.373L2.47768 23.3677C2.36987 23.3058 2.29107 23.2036 2.25862 23.0836C2.22616 22.9636 2.24271 22.8356 2.30462 22.7278C2.36653 22.6199 2.46874 22.5411 2.58875 22.5087C2.70876 22.4762 2.83675 22.4928 2.94456 22.5547L2.95384 22.56C3.04349 22.6115 3.11363 22.6911 3.15334 22.7865C3.19306 22.8819 3.20013 22.9878 3.17345 23.0876C3.14676 23.1875 3.08783 23.2757 3.00581 23.3386C2.92379 23.4015 2.82329 23.4355 2.71993 23.4354ZM5.0544 24.7832C4.97528 24.7832 4.89503 24.7632 4.82143 24.7209L4.81215 24.7155C4.70434 24.6536 4.62554 24.5514 4.59309 24.4314C4.57701 24.372 4.57281 24.31 4.5807 24.2489C4.58859 24.1879 4.60843 24.129 4.63909 24.0756C4.66974 24.0222 4.71061 23.9754 4.75936 23.9378C4.80812 23.9002 4.86379 23.8726 4.92322 23.8565C5.04323 23.8241 5.17122 23.8406 5.27903 23.9025L5.28831 23.9079C5.37796 23.9593 5.4481 24.0389 5.48781 24.1343C5.52753 24.2298 5.5346 24.3356 5.50791 24.4355C5.48123 24.5353 5.4223 24.6236 5.34028 24.6865C5.25826 24.7493 5.15776 24.7834 5.0544 24.7832ZM5.04606 23.4354C4.9427 23.4355 4.8422 23.4015 4.76018 23.3386C4.67816 23.2757 4.61923 23.1875 4.59255 23.0876C4.56586 22.9878 4.57293 22.8819 4.61265 22.7865C4.65236 22.6911 4.7225 22.6115 4.81215 22.56L4.82143 22.5547C4.92924 22.4928 5.05723 22.4762 5.17724 22.5087C5.29726 22.5411 5.39946 22.6199 5.46137 22.7278C5.52328 22.8356 5.53983 22.9636 5.50737 23.0836C5.47492 23.2036 5.39612 23.3058 5.28831 23.3677L5.27903 23.373C5.20816 23.4138 5.12783 23.4353 5.04606 23.4354ZM2.71159 24.7832C2.60824 24.7834 2.50773 24.7493 2.42571 24.6865C2.34369 24.6236 2.28476 24.5353 2.25808 24.4355C2.2314 24.3356 2.23846 24.2298 2.27818 24.1343C2.31789 24.0389 2.38803 23.9593 2.47768 23.9079L2.48696 23.9025C2.59477 23.8406 2.72276 23.8241 2.84278 23.8565C2.96279 23.889 3.06499 23.9678 3.1269 24.0756C3.18881 24.1834 3.20536 24.3114 3.17291 24.4314C3.14045 24.5514 3.06165 24.6536 2.95384 24.7155L2.94456 24.7209C2.87369 24.7617 2.79336 24.7832 2.71159 24.7832Z" fill="#FF6C6C"/>
<path id="Vector_32" d="M5.04606 23.4354C4.9427 23.4355 4.8422 23.4015 4.76018 23.3386C4.67816 23.2757 4.61923 23.1875 4.59255 23.0876C4.56586 22.9878 4.57293 22.8819 4.61265 22.7865C4.65236 22.6911 4.7225 22.6114 4.81215 22.56L4.82143 22.5547C4.92924 22.4928 5.05723 22.4762 5.17724 22.5087C5.29726 22.5411 5.39946 22.6199 5.46137 22.7277C5.52328 22.8355 5.53983 22.9635 5.50737 23.0835C5.47492 23.2036 5.39612 23.3058 5.28831 23.3677L5.27903 23.373C5.20816 23.4138 5.12783 23.4353 5.04606 23.4354ZM2.71159 24.7832C2.60824 24.7833 2.50773 24.7493 2.42571 24.6864C2.34369 24.6235 2.28476 24.5353 2.25808 24.4355C2.2314 24.3356 2.23846 24.2297 2.27818 24.1343C2.31789 24.0389 2.38803 23.9593 2.47768 23.9079L2.48696 23.9025C2.59477 23.8406 2.72276 23.8241 2.84278 23.8565C2.96279 23.889 3.06499 23.9678 3.1269 24.0756C3.18881 24.1834 3.20536 24.3114 3.17291 24.4314C3.14045 24.5514 3.06165 24.6536 2.95384 24.7155L2.94456 24.7209C2.87369 24.7617 2.79336 24.7832 2.71159 24.7832ZM3.883 22.7641C3.75868 22.7641 3.63945 22.7147 3.55154 22.6268C3.46363 22.5389 3.41425 22.4197 3.41425 22.2954V22.2847C3.41425 22.1603 3.46363 22.0411 3.55154 21.9532C3.63945 21.8653 3.75868 21.8159 3.883 21.8159C4.00732 21.8159 4.12654 21.8653 4.21445 21.9532C4.30236 22.0411 4.35175 22.1603 4.35175 22.2847V22.2954C4.35175 22.4197 4.30236 22.5389 4.21445 22.6268C4.12654 22.7147 4.00732 22.7641 3.883 22.7641ZM3.883 25.4597C3.75868 25.4597 3.63945 25.4103 3.55154 25.3224C3.46363 25.2345 3.41425 25.1153 3.41425 24.9909V24.9804C3.41425 24.856 3.46363 24.7368 3.55154 24.6489C3.63945 24.561 3.75868 24.5116 3.883 24.5116C4.00732 24.5116 4.12654 24.561 4.21445 24.6489C4.30236 24.7368 4.35175 24.856 4.35175 24.9804V24.9909C4.35175 25.1153 4.30236 25.2345 4.21445 25.3224C4.12654 25.4103 4.00732 25.4597 3.883 25.4597Z" fill="#FF6C6C"/>
</g>
</g>
<defs>
<linearGradient id="paint0_linear_1_2685" x1="11.285" y1="36.8998" x2="37.9575" y2="10.2274" gradientUnits="userSpaceOnUse">
<stop offset="0.049" stop-color="#FFDBED"/>
<stop offset="0.999" stop-color="#D2DEFF"/>
</linearGradient>
</defs>
</svg>
