<svg width="48" height="48" viewBox="0 0 48 48" fill="none" xmlns="http://www.w3.org/2000/svg">
<g id="3" clip-path="url(#clip0_1_2725)">
<g id="Group">
<g id="Vector">
<path d="M26.4171 0.00317001C22.4347 0.139389 22.0047 3.20416 21.2009 6.47715C20.4763 9.42783 18.4604 8.98946 16.1819 7.64424C8.39657 3.04807 1.20653 16.407 7.39223 21.5858C10.1476 23.8926 14.0348 24.4836 17.4567 25.4918C20.1714 26.2914 23.1099 27.4981 25.0104 29.6817C27.3643 32.3863 26.4301 35.3568 24.5492 37.9892C22.957 40.2177 21.4143 43.5865 23.4747 46.0371C24.6455 47.4297 26.0248 47.9972 27.4864 48.0001H27.5109C31.9209 47.9905 37.0758 42.8601 39.5414 39.7491C43.2741 35.0389 42.1132 28.8479 38.7694 24.1766C37.8022 22.8256 36.7924 21.3529 36.7756 19.6911C36.7435 16.5402 40.1711 14.3877 41.8092 12.0419C44.1317 8.71618 42.8138 5.485 38.5546 4.94922C37.7023 4.84206 36.8484 4.89822 35.997 4.95447C35.1754 5.00875 34.3561 5.06303 33.5423 4.97041C30.1515 4.58481 30.3434 0.000545502 26.5807 0.000263214C26.5269 0.000263214 26.4726 0.00120163 26.4171 0.00317001Z" fill="url(#paint0_linear_1_2725)"/>
<path d="M26.4171 0.00317001C22.4347 0.139389 22.0047 3.20416 21.2009 6.47715C20.4763 9.42783 18.4604 8.98946 16.1819 7.64424C8.39657 3.04807 1.20653 16.407 7.39223 21.5858C10.1476 23.8926 14.0348 24.4836 17.4567 25.4918C20.1714 26.2914 23.1099 27.4981 25.0104 29.6817C27.3643 32.3863 26.4301 35.3568 24.5492 37.9892C22.957 40.2177 21.4143 43.5865 23.4747 46.0371C24.6455 47.4297 26.0248 47.9972 27.4864 48.0001H27.5109C31.9209 47.9905 37.0758 42.8601 39.5414 39.7491C43.2741 35.0389 42.1132 28.8479 38.7694 24.1766C37.8022 22.8256 36.7924 21.3529 36.7756 19.6911C36.7435 16.5402 40.1711 14.3877 41.8092 12.0419C44.1317 8.71618 42.8138 5.485 38.5546 4.94922C37.7023 4.84206 36.8484 4.89822 35.997 4.95447C35.1754 5.00875 34.3561 5.06303 33.5423 4.97041C30.1515 4.58481 30.3434 0.000545502 26.5807 0.000263214C26.5269 0.000263214 26.4726 0.00120163 26.4171 0.00317001Z" fill="url(#paint1_linear_1_2725)"/>
</g>
<g id="Group_2">
<g id="Clip path group">
<mask id="mask0_1_2725" style="mask-type:luminance" maskUnits="userSpaceOnUse" x="12" y="4" width="24" height="44">
<g id="e">
<path id="Vector_2" d="M12.0703 4.94454H35.9294V47.5557H12.0703V4.94454Z" fill="white"/>
</g>
</mask>
<g mask="url(#mask0_1_2725)">
<g id="Group_3" opacity="0.1">
<path id="Vector_3" d="M32.1796 47.5557H15.8204C13.7493 47.5557 12.0704 45.8767 12.0704 43.8057V8.69453C12.0704 6.6235 13.7493 4.94454 15.8204 4.94454H32.1796C34.2506 4.94454 35.9296 6.6235 35.9296 8.69453V43.8057C35.9296 45.8767 34.2506 47.5557 32.1796 47.5557Z" fill="#2626BC"/>
</g>
</g>
</g>
<path id="Vector_4" d="M32.1794 45.3057H15.8203C13.7492 45.3057 12.0703 43.6267 12.0703 41.5557V6.44453C12.0703 4.3735 13.7492 2.69454 15.8203 2.69454H32.1794C34.2505 2.69454 35.9294 4.3735 35.9294 6.44453V41.5557C35.9294 43.6267 34.2505 45.3057 32.1794 45.3057Z" fill="#D9D9FF"/>
<path id="Vector_5" d="M12.0703 32.3865V41.5557C12.0703 43.6268 13.7493 45.3057 15.8203 45.3057H32.1794C34.2506 45.3057 35.9294 43.6268 35.9294 41.5557V32.3865H12.0703Z" fill="#6C6CFF"/>
<path id="Vector_6" d="M12.0703 41.5557C12.0703 43.6267 13.7493 45.3057 15.8203 45.3057H32.1794C34.2506 45.3057 35.9294 43.6267 35.9294 41.5557H12.0703Z" fill="#FF9494"/>
<path id="Vector_7" d="M29.5357 4.37414L30.2791 2.69452H17.7109L18.4544 4.37414C18.6014 4.70625 18.8417 4.98851 19.146 5.18664C19.4504 5.38477 19.8058 5.49024 20.169 5.49023H27.8211C28.1843 5.49024 28.5396 5.38477 28.844 5.18664C29.1484 4.98851 29.3887 4.70625 29.5357 4.37414Z" fill="#2D58E0"/>
<path id="Vector_8" d="M21.2357 2.69454H15.8203C13.7493 2.69454 12.0703 4.3735 12.0703 6.44453V41.5557C12.0703 43.6267 13.7493 45.3057 15.8203 45.3057H32.1794C34.2506 45.3057 35.9294 43.6267 35.9294 41.5557V38.029" stroke="#2626BC" stroke-miterlimit="10" stroke-linecap="round" stroke-linejoin="round"/>
<path id="Vector_9" d="M35.9266 35.3008V6.44443C35.9266 4.37341 34.2476 2.69444 32.1766 2.69444H23.9609" stroke="#2626BC" stroke-miterlimit="10" stroke-linecap="round" stroke-linejoin="round"/>
<path id="Vector_10" d="M17.125 17.8105C17.0007 17.8105 16.8815 17.7612 16.7935 17.6733C16.7056 17.5853 16.6562 17.4661 16.6562 17.3418V15.514C16.6562 15.3896 16.7056 15.2704 16.7935 15.1825C16.8815 15.0946 17.0007 15.0452 17.125 15.0452C17.2493 15.0452 17.3685 15.0946 17.4565 15.1825C17.5444 15.2704 17.5937 15.3896 17.5937 15.514V17.3418C17.5937 17.4661 17.5444 17.5853 17.4565 17.6733C17.3685 17.7612 17.2493 17.8105 17.125 17.8105Z" fill="#2D58E0"/>
<path id="Vector_11" d="M17.125 27.8677C17.0007 27.8677 16.8815 27.8183 16.7935 27.7304C16.7056 27.6425 16.6562 27.5232 16.6562 27.3989V25.5711C16.6562 25.4468 16.7056 25.3275 16.7935 25.2396C16.8815 25.1517 17.0007 25.1023 17.125 25.1023C17.2493 25.1023 17.3685 25.1517 17.4565 25.2396C17.5444 25.3275 17.5937 25.4468 17.5937 25.5711V27.3989C17.5937 27.5232 17.5444 27.6425 17.4565 27.7304C17.3685 27.8183 17.2493 27.8677 17.125 27.8677Z" fill="#2D58E0"/>
<path id="Vector_12" d="M18.0582 25.5508H16.1953C16.071 25.5508 15.9518 25.5014 15.8639 25.4135C15.7759 25.3256 15.7266 25.2064 15.7266 25.082V17.8309C15.7266 17.7065 15.7759 17.5873 15.8639 17.4994C15.9518 17.4115 16.071 17.3621 16.1953 17.3621H18.0582C18.1825 17.3621 18.3018 17.4115 18.3897 17.4994C18.4776 17.5873 18.527 17.7065 18.527 17.8309V25.082C18.527 25.2064 18.4776 25.3256 18.3897 25.4135C18.3018 25.5014 18.1825 25.5508 18.0582 25.5508Z" fill="#FF9D33"/>
<path id="Vector_13" d="M18.0582 25.5508H16.1953C16.071 25.5508 15.9518 25.5014 15.8639 25.4135C15.7759 25.3256 15.7266 25.2064 15.7266 25.082V23.5145H18.527V25.082C18.527 25.2064 18.4776 25.3256 18.3897 25.4135C18.3018 25.5014 18.1825 25.5508 18.0582 25.5508Z" fill="#FFC599"/>
<path id="Vector_14" d="M21.7109 21.5605C21.5866 21.5605 21.4674 21.5112 21.3795 21.4233C21.2916 21.3353 21.2422 21.2161 21.2422 21.0918V16.264C21.2422 16.1396 21.2916 16.0204 21.3795 15.9325C21.4674 15.8446 21.5866 15.7952 21.7109 15.7952C21.8353 15.7952 21.9545 15.8446 22.0424 15.9325C22.1303 16.0204 22.1797 16.1396 22.1797 16.264V21.0918C22.1797 21.2161 22.1303 21.3353 22.0424 21.4233C21.9545 21.5112 21.8353 21.5605 21.7109 21.5605Z" fill="#2D58E0"/>
<path id="Vector_15" d="M21.7109 27.8677C21.5866 27.8677 21.4674 27.8183 21.3795 27.7304C21.2916 27.6425 21.2422 27.5232 21.2422 27.3989V25.5711C21.2422 25.4468 21.2916 25.3275 21.3795 25.2396C21.4674 25.1517 21.5866 25.1023 21.7109 25.1023C21.8353 25.1023 21.9545 25.1517 22.0424 25.2396C22.1303 25.3275 22.1797 25.4468 22.1797 25.5711V27.3989C22.1797 27.5232 22.1303 27.6425 22.0424 27.7304C21.9545 27.8183 21.8353 27.8677 21.7109 27.8677Z" fill="#2D58E0"/>
<path id="Vector_16" d="M22.6363 25.5508H20.7734C20.6491 25.5508 20.5299 25.5014 20.442 25.4135C20.3541 25.3256 20.3047 25.2064 20.3047 25.082V21.5809C20.3047 21.4565 20.3541 21.3373 20.442 21.2494C20.5299 21.1615 20.6491 21.1121 20.7734 21.1121H22.6363C22.7607 21.1121 22.8799 21.1615 22.9678 21.2494C23.0557 21.3373 23.1051 21.4565 23.1051 21.5809V25.082C23.1051 25.2064 23.0557 25.3256 22.9678 25.4135C22.8799 25.5014 22.7607 25.5508 22.6363 25.5508Z" fill="#FF6C6C"/>
<path id="Vector_17" d="M22.6363 25.5508H20.7734C20.6491 25.5508 20.5299 25.5014 20.442 25.4135C20.3541 25.3256 20.3047 25.2064 20.3047 25.082V23.5145H23.1051V25.082C23.1051 25.2064 23.0557 25.3256 22.9678 25.4135C22.8799 25.5014 22.7607 25.5508 22.6363 25.5508Z" fill="#FF9494"/>
<path id="Vector_18" d="M30.875 17.8105C30.7507 17.8105 30.6315 17.7612 30.5435 17.6733C30.4556 17.5853 30.4062 17.4661 30.4062 17.3418V10.639C30.4062 10.5147 30.4556 10.3954 30.5435 10.3075C30.6315 10.2196 30.7507 10.1702 30.875 10.1702C30.9993 10.1702 31.1185 10.2196 31.2065 10.3075C31.2944 10.3954 31.3437 10.5147 31.3437 10.639V17.3418C31.3437 17.4661 31.2944 17.5853 31.2065 17.6733C31.1185 17.7612 30.9993 17.8105 30.875 17.8105Z" fill="#2D58E0"/>
<path id="Vector_19" d="M30.875 27.8677C30.7507 27.8677 30.6315 27.8183 30.5435 27.7304C30.4556 27.6425 30.4062 27.5232 30.4062 27.3989V25.5711C30.4062 25.4468 30.4556 25.3275 30.5435 25.2396C30.6315 25.1517 30.7507 25.1023 30.875 25.1023C30.9993 25.1023 31.1185 25.1517 31.2065 25.2396C31.2944 25.3275 31.3437 25.4468 31.3437 25.5711V27.3989C31.3437 27.5232 31.2944 27.6425 31.2065 27.7304C31.1185 27.8183 30.9993 27.8677 30.875 27.8677Z" fill="#2D58E0"/>
<path id="Vector_20" d="M31.8004 25.5508H29.9375C29.8132 25.5508 29.694 25.5014 29.606 25.4135C29.5181 25.3256 29.4688 25.2064 29.4688 25.082V17.8309C29.4688 17.7065 29.5181 17.5873 29.606 17.4994C29.694 17.4115 29.8132 17.3621 29.9375 17.3621H31.8004C31.9247 17.3621 32.0439 17.4115 32.1319 17.4994C32.2198 17.5873 32.2691 17.7065 32.2691 17.8309V25.082C32.2691 25.2064 32.2198 25.3256 32.1319 25.4135C32.0439 25.5014 31.9247 25.5508 31.8004 25.5508Z" fill="#FF6C6C"/>
<path id="Vector_21" d="M31.8004 25.5508H29.9375C29.8132 25.5508 29.694 25.5014 29.606 25.4135C29.5181 25.3256 29.4688 25.2064 29.4688 25.082V23.5145H32.2691V25.082C32.2691 25.2064 32.2198 25.3256 32.1319 25.4135C32.0439 25.5014 31.9247 25.5508 31.8004 25.5508Z" fill="#FF9494"/>
<path id="Vector_22" d="M26.2891 10.3105C26.1647 10.3105 26.0455 10.2612 25.9576 10.1733C25.8697 10.0853 25.8203 9.96612 25.8203 9.8418V8.01396C25.8203 7.88964 25.8697 7.77041 25.9576 7.6825C26.0455 7.5946 26.1647 7.54521 26.2891 7.54521C26.4134 7.54521 26.5326 7.5946 26.6205 7.6825C26.7084 7.77041 26.7578 7.88964 26.7578 8.01396V9.8418C26.7578 9.96612 26.7084 10.0853 26.6205 10.1733C26.5326 10.2612 26.4134 10.3105 26.2891 10.3105Z" fill="#2D58E0"/>
<path id="Vector_23" d="M26.2891 24.1177C26.1647 24.1177 26.0455 24.0683 25.9576 23.9804C25.8697 23.8925 25.8203 23.7732 25.8203 23.6489V21.8211C25.8203 21.6968 25.8697 21.5775 25.9576 21.4896C26.0455 21.4017 26.1647 21.3523 26.2891 21.3523C26.4134 21.3523 26.5326 21.4017 26.6205 21.4896C26.7084 21.5775 26.7578 21.6968 26.7578 21.8211V23.6489C26.7578 23.7732 26.7084 23.8925 26.6205 23.9804C26.5326 24.0683 26.4134 24.1177 26.2891 24.1177Z" fill="#2D58E0"/>
<path id="Vector_24" d="M27.2223 21.8008H25.3594C25.2351 21.8008 25.1158 21.7514 25.0279 21.6635C24.94 21.5756 24.8906 21.4564 24.8906 21.332V10.3309C24.8906 10.2066 24.94 10.0873 25.0279 9.99942C25.1158 9.91152 25.2351 9.86213 25.3594 9.86213H27.2223C27.3466 9.86213 27.4658 9.91152 27.5537 9.99942C27.6416 10.0873 27.691 10.2066 27.691 10.3309V21.332C27.691 21.4564 27.6416 21.5756 27.5537 21.6635C27.4658 21.7514 27.3466 21.8008 27.2223 21.8008Z" fill="#FF9D33"/>
<path id="Vector_25" d="M27.2223 21.8008H25.3594C25.2351 21.8008 25.1158 21.7514 25.0279 21.6635C24.94 21.5756 24.8906 21.4564 24.8906 21.332V19.7645H27.691V21.332C27.691 21.4564 27.6416 21.5756 27.5537 21.6635C27.4658 21.7514 27.3466 21.8008 27.2223 21.8008Z" fill="#FFC599"/>
<path id="Vector_26" d="M19.2205 8.30612H15.3047C15.2052 8.30612 15.1098 8.34563 15.0395 8.41595C14.9692 8.48628 14.9297 8.58166 14.9297 8.68112V10.5071C14.9297 10.6065 14.9692 10.7019 15.0395 10.7722C15.1098 10.8426 15.2052 10.8821 15.3047 10.8821H19.2205C19.3564 10.8821 19.4837 10.8164 19.5623 10.7056L20.1794 9.83696C20.2297 9.76601 20.2568 9.68115 20.2568 9.59415C20.2568 9.50714 20.2297 9.42229 20.1794 9.35133L19.5623 8.48265C19.5236 8.42808 19.4723 8.38358 19.4129 8.35286C19.3534 8.32215 19.2874 8.30612 19.2205 8.30612Z" fill="#8399FE"/>
<path id="Vector_27" d="M16.8363 30.8584H15.7969C15.6726 30.8584 15.5533 30.809 15.4654 30.7211C15.3775 30.6332 15.3281 30.514 15.3281 30.3896C15.3281 30.2653 15.3775 30.1461 15.4654 30.0582C15.5533 29.9703 15.6726 29.9209 15.7969 29.9209H16.8363C16.9606 29.9209 17.0798 29.9703 17.1677 30.0582C17.2556 30.1461 17.305 30.2653 17.305 30.3896C17.305 30.514 17.2556 30.6332 17.1677 30.7211C17.0798 30.809 16.9606 30.8584 16.8363 30.8584Z" fill="#8383FF"/>
<path id="Vector_28" d="M21.9613 30.8584H20.9219C20.7976 30.8584 20.6783 30.809 20.5904 30.7211C20.5025 30.6332 20.4531 30.514 20.4531 30.3896C20.4531 30.2653 20.5025 30.1461 20.5904 30.0582C20.6783 29.9703 20.7976 29.9209 20.9219 29.9209H21.9613C22.0856 29.9209 22.2048 29.9703 22.2927 30.0582C22.3806 30.1461 22.43 30.2653 22.43 30.3896C22.43 30.514 22.3806 30.6332 22.2927 30.7211C22.2048 30.809 22.0856 30.8584 21.9613 30.8584Z" fill="#8383FF"/>
<path id="Vector_29" d="M27.0785 30.8584H26.0391C25.9147 30.8584 25.7955 30.809 25.7076 30.7211C25.6197 30.6332 25.5703 30.514 25.5703 30.3896C25.5703 30.2653 25.6197 30.1461 25.7076 30.0582C25.7955 29.9703 25.9147 29.9209 26.0391 29.9209H27.0785C27.2028 29.9209 27.322 29.9703 27.4099 30.0582C27.4978 30.1461 27.5472 30.2653 27.5472 30.3896C27.5472 30.514 27.4978 30.6332 27.4099 30.7211C27.322 30.809 27.2028 30.8584 27.0785 30.8584Z" fill="#8383FF"/>
<path id="Vector_30" d="M32.1957 30.8584H31.1562C31.0319 30.8584 30.9127 30.809 30.8248 30.7211C30.7369 30.6332 30.6875 30.514 30.6875 30.3896C30.6875 30.2653 30.7369 30.1461 30.8248 30.0582C30.9127 29.9703 31.0319 29.9209 31.1562 29.9209H32.1957C32.32 29.9209 32.4392 29.9703 32.5271 30.0582C32.615 30.1461 32.6644 30.2653 32.6644 30.3896C32.6644 30.514 32.615 30.6332 32.5271 30.7211C32.4392 30.809 32.32 30.8584 32.1957 30.8584Z" fill="#8383FF"/>
<path id="Vector_31" d="M19.0777 35.4648H16.0625C15.9382 35.4648 15.819 35.4155 15.731 35.3276C15.6431 35.2396 15.5938 35.1204 15.5938 34.9961C15.5938 34.8718 15.6431 34.7525 15.731 34.6646C15.819 34.5767 15.9382 34.5273 16.0625 34.5273H19.0777C19.202 34.5273 19.3212 34.5767 19.4091 34.6646C19.497 34.7525 19.5464 34.8718 19.5464 34.9961C19.5464 35.1204 19.497 35.2396 19.4091 35.3276C19.3212 35.4155 19.202 35.4648 19.0777 35.4648Z" fill="#FF9D33"/>
<path id="Vector_32" d="M22.1644 37.3755H16.0625C15.9382 37.3755 15.819 37.3261 15.731 37.2382C15.6431 37.1503 15.5938 37.0311 15.5938 36.9067C15.5938 36.7824 15.6431 36.6632 15.731 36.5753C15.819 36.4874 15.9382 36.438 16.0625 36.438H22.1644C22.2887 36.438 22.4079 36.4874 22.4958 36.5753C22.5837 36.6632 22.6331 36.7824 22.6331 36.9067C22.6331 37.0311 22.5837 37.1503 22.4958 37.2382C22.4079 37.3261 22.2887 37.3755 22.1644 37.3755Z" fill="white"/>
<path id="Vector_33" d="M22.1644 39.2864H16.0625C15.9382 39.2864 15.819 39.237 15.731 39.1491C15.6431 39.0612 15.5938 38.9419 15.5938 38.8176C15.5938 38.6933 15.6431 38.5741 15.731 38.4862C15.819 38.3983 15.9382 38.3489 16.0625 38.3489H22.1644C22.2887 38.3489 22.4079 38.3983 22.4958 38.4862C22.5837 38.5741 22.6331 38.6933 22.6331 38.8176C22.6331 38.9419 22.5837 39.0612 22.4958 39.1491C22.4079 39.237 22.2887 39.2864 22.1644 39.2864Z" fill="white"/>
<path id="Vector_34" d="M21.0389 34.2413C21.0389 34.3657 20.9895 34.4849 20.9016 34.5728C20.8136 34.6607 20.6944 34.7101 20.5701 34.7101C20.4457 34.7101 20.3265 34.6607 20.2386 34.5727C20.1507 34.4848 20.1013 34.3656 20.1013 34.2412C20.1013 34.1169 20.1507 33.9977 20.2387 33.9098C20.2822 33.8662 20.3339 33.8317 20.3908 33.8082C20.4476 33.7846 20.5086 33.7725 20.5702 33.7725C20.6317 33.7725 20.6927 33.7846 20.7496 33.8082C20.8064 33.8318 20.8581 33.8663 20.9016 33.9098C20.9452 33.9534 20.9797 34.0051 21.0032 34.0619C21.0268 34.1188 21.0389 34.1798 21.0389 34.2413Z" fill="#FF9D33"/>
<path id="Vector_35" d="M28.8511 35.4648H25.8359C25.7116 35.4648 25.5924 35.4155 25.5045 35.3276C25.4166 35.2396 25.3672 35.1204 25.3672 34.9961C25.3672 34.8718 25.4166 34.7525 25.5045 34.6646C25.5924 34.5767 25.7116 34.5273 25.8359 34.5273H28.8511C28.9754 34.5273 29.0947 34.5767 29.1826 34.6646C29.2705 34.7525 29.3199 34.8718 29.3199 34.9961C29.3199 35.1204 29.2705 35.2396 29.1826 35.3276C29.0947 35.4155 28.9754 35.4648 28.8511 35.4648Z" fill="#FF6C6C"/>
<path id="Vector_36" d="M31.9378 37.3755H25.8359C25.7116 37.3755 25.5924 37.3261 25.5045 37.2382C25.4166 37.1503 25.3672 37.0311 25.3672 36.9067C25.3672 36.7824 25.4166 36.6632 25.5045 36.5753C25.5924 36.4874 25.7116 36.438 25.8359 36.438H31.9378C32.0621 36.438 32.1814 36.4874 32.2693 36.5753C32.3572 36.6632 32.4066 36.7824 32.4066 36.9067C32.4066 37.0311 32.3572 37.1503 32.2693 37.2382C32.1814 37.3261 32.0621 37.3755 31.9378 37.3755Z" fill="white"/>
<path id="Vector_37" d="M31.9378 39.2864H25.8359C25.7116 39.2864 25.5924 39.237 25.5045 39.1491C25.4166 39.0612 25.3672 38.9419 25.3672 38.8176C25.3672 38.6933 25.4166 38.5741 25.5045 38.4862C25.5924 38.3983 25.7116 38.3489 25.8359 38.3489H31.9378C32.0621 38.3489 32.1814 38.3983 32.2693 38.4862C32.3572 38.5741 32.4066 38.6933 32.4066 38.8176C32.4066 38.9419 32.3572 39.0612 32.2693 39.1491C32.1814 39.237 32.0621 39.2864 31.9378 39.2864Z" fill="white"/>
<path id="Vector_38" d="M30.8127 34.2413C30.8127 34.3657 30.7633 34.4849 30.6754 34.5728C30.5874 34.6607 30.4682 34.7101 30.3439 34.7101C30.2195 34.7101 30.1003 34.6607 30.0124 34.5727C29.9245 34.4848 29.8751 34.3656 29.8751 34.2412C29.8751 34.1169 29.9245 33.9977 30.0125 33.9098C30.056 33.8662 30.1077 33.8317 30.1646 33.8082C30.2214 33.7846 30.2824 33.7725 30.344 33.7725C30.4055 33.7725 30.4665 33.7846 30.5234 33.8082C30.5802 33.8318 30.6319 33.8663 30.6754 33.9098C30.719 33.9534 30.7535 34.0051 30.777 34.0619C30.8006 34.1188 30.8127 34.1798 30.8127 34.2413Z" fill="#FF6C6C"/>
</g>
</g>
<path id="Union" fill-rule="evenodd" clip-rule="evenodd" d="M7.42884 4.19048C7.42679 4.22104 7.42174 4.25155 7.41363 4.28156C7.38117 4.40158 7.30237 4.50378 7.19456 4.56569L7.18528 4.57103C7.11441 4.61184 7.03408 4.63334 6.95231 4.63338C6.84895 4.63352 6.74845 4.5995 6.66643 4.53661C6.58441 4.47372 6.52548 4.38549 6.4988 4.28564C6.49122 4.2573 6.48637 4.22848 6.48421 4.19955C6.48256 4.1775 6.48248 4.15539 6.48395 4.13338C6.48734 4.08251 6.49904 4.03219 6.5189 3.98448C6.55861 3.88906 6.62875 3.80944 6.7184 3.75801L6.72768 3.75267C6.83549 3.69076 6.96348 3.67421 7.08349 3.70666C7.20351 3.73912 7.30571 3.81792 7.36762 3.92573C7.4028 3.98698 7.42333 4.05475 7.42855 4.12386C7.43022 4.14599 7.43032 4.16825 7.42884 4.19048ZM5.09434 5.53875C5.09226 5.56932 5.08719 5.59969 5.07916 5.62941C5.06309 5.68883 5.03547 5.74451 4.99788 5.79326C4.96029 5.84201 4.91347 5.88288 4.86009 5.91353L4.85081 5.91888C4.77994 5.95968 4.69961 5.98118 4.61784 5.98122C4.51448 5.98136 4.41398 5.94735 4.33196 5.88446C4.24994 5.82157 4.19101 5.73333 4.16433 5.63348C4.15369 5.5937 4.14842 5.55295 4.14844 5.51229C4.14846 5.45091 4.16054 5.38972 4.18443 5.33232C4.22414 5.2369 4.29428 5.15728 4.38393 5.10585L4.39321 5.10051C4.50103 5.0386 4.62901 5.02205 4.74903 5.05451C4.80845 5.07058 4.86413 5.09819 4.91288 5.13578C4.96163 5.17337 5.0025 5.22019 5.03315 5.27357C5.06381 5.32696 5.08365 5.38585 5.09154 5.4469C5.09253 5.45453 5.09333 5.46217 5.09393 5.46982C5.09576 5.49279 5.09589 5.51583 5.09434 5.53875ZM5.45779 3.82472C5.5457 3.91262 5.66493 3.96201 5.78925 3.96201C5.91357 3.96201 6.0328 3.91262 6.1207 3.82472C6.20861 3.73681 6.258 3.61758 6.258 3.49326V3.48267C6.258 3.35835 6.20861 3.23912 6.1207 3.15121C6.0328 3.0633 5.91357 3.01392 5.78925 3.01392C5.66493 3.01392 5.5457 3.0633 5.45779 3.15121C5.36988 3.23912 5.3205 3.35835 5.3205 3.48267V3.49326C5.3205 3.61758 5.36988 3.73681 5.45779 3.82472ZM5.45779 6.5204C5.5457 6.60831 5.66493 6.6577 5.78925 6.6577C5.91357 6.6577 6.0328 6.60831 6.1207 6.5204C6.20861 6.4325 6.258 6.31327 6.258 6.18895V6.17826C6.258 6.05394 6.20861 5.93471 6.1207 5.8468C6.0328 5.7589 5.91357 5.70951 5.78925 5.70951C5.66493 5.70951 5.5457 5.7589 5.45779 5.8468C5.36988 5.93471 5.3205 6.05394 5.3205 6.17826V6.18895C5.3205 6.31327 5.36988 6.4325 5.45779 6.5204ZM4.39312 4.57103C4.46671 4.61332 4.54697 4.63338 4.62609 4.63338C4.72944 4.63352 4.82995 4.5995 4.91197 4.53661C4.99399 4.47372 5.05292 4.38549 5.0796 4.28564C5.10628 4.18579 5.09922 4.07992 5.0595 3.9845C5.01978 3.88908 4.94965 3.80946 4.86 3.75803L4.85072 3.75269C4.79733 3.72203 4.73844 3.70219 4.67739 3.6943C4.61634 3.68641 4.55433 3.69062 4.4949 3.70669C4.43548 3.72276 4.3798 3.75037 4.33105 3.78796C4.2823 3.82555 4.24143 3.87237 4.21078 3.92575C4.18012 3.97913 4.16028 4.03803 4.15239 4.09908C4.14449 4.16013 4.1487 4.22214 4.16477 4.28156C4.18084 4.34099 4.20846 4.39666 4.24605 4.44541C4.28364 4.49416 4.33046 4.53503 4.38384 4.56569L4.39312 4.57103ZM6.72768 5.91888C6.80128 5.96116 6.88153 5.98122 6.96065 5.98122C7.06401 5.98136 7.16451 5.94735 7.24653 5.88446C7.32855 5.82157 7.38748 5.73333 7.41417 5.63348C7.44085 5.53363 7.43378 5.42776 7.39406 5.33234C7.35435 5.23692 7.28421 5.15731 7.19456 5.10588L7.18528 5.10053C7.07747 5.03862 6.94948 5.02207 6.82947 5.05453C6.70946 5.08699 6.60725 5.16579 6.54534 5.2736C6.48343 5.38141 6.46688 5.5094 6.49934 5.62941C6.53179 5.74942 6.61059 5.85162 6.7184 5.91353L6.72768 5.91888Z" fill="#6583FE"/>
<path id="Union_2" fill-rule="evenodd" clip-rule="evenodd" d="M44.4288 19.1905C44.4268 19.221 44.4217 19.2516 44.4136 19.2816C44.3812 19.4016 44.3024 19.5038 44.1946 19.5657L44.1853 19.571C44.1144 19.6118 44.0341 19.6333 43.9523 19.6334C43.849 19.6335 43.7485 19.5995 43.6664 19.5366C43.5844 19.4737 43.5255 19.3855 43.4988 19.2856C43.4912 19.2573 43.4864 19.2285 43.4842 19.1995C43.4826 19.1775 43.4825 19.1554 43.4839 19.1334C43.4873 19.0825 43.499 19.0322 43.5189 18.9845C43.5586 18.8891 43.6288 18.8094 43.7184 18.758L43.7277 18.7527C43.8355 18.6908 43.9635 18.6742 44.0835 18.7067C44.2035 18.7391 44.3057 18.8179 44.3676 18.9257C44.4028 18.987 44.4233 19.0547 44.4285 19.1239C44.4302 19.146 44.4303 19.1682 44.4288 19.1905ZM42.0943 20.5388C42.0923 20.5693 42.0872 20.5997 42.0792 20.6294C42.0631 20.6888 42.0355 20.7445 41.9979 20.7933C41.9603 20.842 41.9135 20.8829 41.8601 20.9135L41.8508 20.9189C41.7799 20.9597 41.6996 20.9812 41.6178 20.9812C41.5145 20.9814 41.414 20.9473 41.332 20.8845C41.2499 20.8216 41.191 20.7333 41.1643 20.6335C41.1537 20.5937 41.1484 20.553 41.1484 20.5123C41.1485 20.4509 41.1605 20.3897 41.1844 20.3323C41.2241 20.2369 41.2943 20.1573 41.3839 20.1059L41.3932 20.1005C41.501 20.0386 41.629 20.0221 41.749 20.0545C41.8084 20.0706 41.8641 20.0982 41.9129 20.1358C41.9616 20.1734 42.0025 20.2202 42.0332 20.2736C42.0638 20.327 42.0836 20.3859 42.0915 20.4469C42.0925 20.4545 42.0933 20.4622 42.0939 20.4698C42.0958 20.4928 42.0959 20.5158 42.0943 20.5388ZM42.4578 18.8247C42.5457 18.9126 42.6649 18.962 42.7892 18.962C42.9136 18.962 43.0328 18.9126 43.1207 18.8247C43.2086 18.7368 43.258 18.6176 43.258 18.4933V18.4827C43.258 18.3583 43.2086 18.2391 43.1207 18.1512C43.0328 18.0633 42.9136 18.0139 42.7892 18.0139C42.6649 18.0139 42.5457 18.0633 42.4578 18.1512C42.3699 18.2391 42.3205 18.3583 42.3205 18.4827V18.4933C42.3205 18.6176 42.3699 18.7368 42.4578 18.8247ZM42.4578 21.5204C42.5457 21.6083 42.6649 21.6577 42.7892 21.6577C42.9136 21.6577 43.0328 21.6083 43.1207 21.5204C43.2086 21.4325 43.258 21.3133 43.258 21.1889V21.1783C43.258 21.0539 43.2086 20.9347 43.1207 20.8468C43.0328 20.7589 42.9136 20.7095 42.7892 20.7095C42.6649 20.7095 42.5457 20.7589 42.4578 20.8468C42.3699 20.9347 42.3205 21.0539 42.3205 21.1783V21.1889C42.3205 21.3133 42.3699 21.4325 42.4578 21.5204ZM41.3931 19.571C41.4667 19.6133 41.547 19.6334 41.6261 19.6334C41.7294 19.6335 41.8299 19.5995 41.912 19.5366C41.994 19.4737 42.0529 19.3855 42.0796 19.2856C42.1063 19.1858 42.0992 19.0799 42.0595 18.9845C42.0198 18.8891 41.9496 18.8095 41.86 18.758L41.8507 18.7527C41.7973 18.722 41.7384 18.7022 41.6774 18.6943C41.6163 18.6864 41.5543 18.6906 41.4949 18.7067C41.4355 18.7228 41.3798 18.7504 41.3311 18.788C41.2823 18.8255 41.2414 18.8724 41.2108 18.9258C41.1801 18.9791 41.1603 19.038 41.1524 19.0991C41.1445 19.1601 41.1487 19.2221 41.1648 19.2816C41.1808 19.341 41.2085 19.3967 41.246 19.4454C41.2836 19.4942 41.3305 19.535 41.3838 19.5657L41.3931 19.571ZM43.7277 20.9189C43.8013 20.9612 43.8815 20.9812 43.9607 20.9812C44.064 20.9814 44.1645 20.9473 44.2465 20.8845C44.3285 20.8216 44.3875 20.7333 44.4142 20.6335C44.4408 20.5336 44.4338 20.4278 44.3941 20.3323C44.3543 20.2369 44.2842 20.1573 44.1946 20.1059L44.1853 20.1005C44.0775 20.0386 43.9495 20.0221 43.8295 20.0545C43.7095 20.087 43.6073 20.1658 43.5453 20.2736C43.4834 20.3814 43.4669 20.5094 43.4993 20.6294C43.5318 20.7494 43.6106 20.8516 43.7184 20.9135L43.7277 20.9189Z" fill="#FF6C6C"/>
<path id="Vector_39" d="M7.80884 27.9711C7.74726 27.9712 7.68627 27.9591 7.62938 27.9356C7.57249 27.912 7.52082 27.8774 7.47734 27.8338L7.01197 27.3684L6.54659 27.8338C6.50327 27.8782 6.45156 27.9136 6.39446 27.9379C6.33736 27.9622 6.276 27.9749 6.21394 27.9753C6.15189 27.9757 6.09037 27.9638 6.03296 27.9402C5.97555 27.9167 5.92339 27.8819 5.87951 27.8381C5.83562 27.7942 5.80089 27.742 5.77732 27.6846C5.75375 27.6272 5.74181 27.5657 5.7422 27.5037C5.74259 27.4416 5.75529 27.3802 5.77958 27.3231C5.80387 27.266 5.83926 27.2143 5.88369 27.171L6.68056 26.3741C6.76847 26.2862 6.88769 26.2368 7.01201 26.2368C7.13633 26.2368 7.25556 26.2862 7.34347 26.3741L8.14034 27.171C8.20597 27.2365 8.25068 27.32 8.26881 27.411C8.28694 27.5019 8.27767 27.5962 8.24217 27.6819C8.20667 27.7676 8.14655 27.8408 8.06941 27.8923C7.99227 27.9438 7.90159 27.9712 7.80884 27.9711Z" fill="#FF6C6C"/>
<path id="Vector_40" d="M8.80884 32.9711C8.74726 32.9712 8.68627 32.9591 8.62938 32.9356C8.57249 32.912 8.52082 32.8774 8.47734 32.8338L8.01197 32.3684L7.54659 32.8338C7.50327 32.8782 7.45156 32.9136 7.39446 32.9379C7.33736 32.9622 7.276 32.9749 7.21394 32.9753C7.15189 32.9757 7.09037 32.9638 7.03296 32.9402C6.97555 32.9167 6.92339 32.8819 6.87951 32.8381C6.83562 32.7942 6.80089 32.742 6.77732 32.6846C6.75375 32.6272 6.74181 32.5657 6.7422 32.5037C6.74259 32.4416 6.75529 32.3802 6.77958 32.3231C6.80387 32.266 6.83926 32.2143 6.88369 32.171L7.68056 31.3741C7.76847 31.2862 7.88769 31.2368 8.01201 31.2368C8.13633 31.2368 8.25556 31.2862 8.34347 31.3741L9.14034 32.171C9.20597 32.2365 9.25068 32.32 9.26881 32.411C9.28694 32.5019 9.27767 32.5962 9.24217 32.6819C9.20667 32.7676 9.14655 32.8408 9.06941 32.8923C8.99227 32.9438 8.90159 32.9712 8.80884 32.9711Z" fill="#8399FE"/>
<path id="Vector_41" d="M40.8088 44.9711C40.7473 44.9712 40.6863 44.9591 40.6294 44.9356C40.5725 44.912 40.5208 44.8774 40.4773 44.8338L40.012 44.3684L39.5466 44.8338C39.5033 44.8782 39.4516 44.9136 39.3945 44.9379C39.3374 44.9622 39.276 44.9749 39.2139 44.9753C39.1519 44.9757 39.0904 44.9638 39.033 44.9402C38.9755 44.9167 38.9234 44.8819 38.8795 44.8381C38.8356 44.7942 38.8009 44.742 38.7773 44.6846C38.7537 44.6272 38.7418 44.5657 38.7422 44.5037C38.7426 44.4416 38.7553 44.3802 38.7796 44.3231C38.8039 44.266 38.8393 44.2143 38.8837 44.171L39.6806 43.3741C39.7685 43.2862 39.8877 43.2368 40.012 43.2368C40.1363 43.2368 40.2556 43.2862 40.3435 43.3741L41.1403 44.171C41.206 44.2365 41.2507 44.32 41.2688 44.411C41.2869 44.5019 41.2777 44.5962 41.2422 44.6819C41.2067 44.7676 41.1465 44.8408 41.0694 44.8923C40.9923 44.9438 40.9016 44.9712 40.8088 44.9711Z" fill="#8399FE"/>
</g>
<defs>
<linearGradient id="paint0_linear_1_2725" x1="21" y1="11.5001" x2="8.70694" y2="35.0868" gradientUnits="userSpaceOnUse">
<stop stop-color="#FFD9D9" stop-opacity="0"/>
<stop offset="0.998" stop-color="#FFB3B3"/>
</linearGradient>
<linearGradient id="paint1_linear_1_2725" x1="13.9627" y1="10.5617" x2="40.7335" y2="30.8251" gradientUnits="userSpaceOnUse">
<stop offset="0.049" stop-color="#FFDBED"/>
<stop offset="0.999" stop-color="#D2DEFF"/>
</linearGradient>
<clipPath id="clip0_1_2725">
<rect width="48" height="48" fill="white"/>
</clipPath>
</defs>
</svg>
