<svg width="24" height="24" viewBox="0 0 24 24" fill="none" xmlns="http://www.w3.org/2000/svg">
<g id="vuesax/bold/monitor-mobbile">
<g id="monitor-mobbile">
<path id="Vector" d="M20.99 9.71C20.65 9.57 20.2 9.5 19.64 9.5H14.36C12.62 9.5 12 10.12 12 11.88V19.62C12 20.2 12.07 20.65 12.22 21C12.53 21.72 13.19 22 14.36 22H19.64C21.38 22 22 21.37 22 19.62V11.88C22 10.69 21.72 10.02 20.99 9.71ZM18 19.75H16C15.98 19.75 15.95 19.75 15.93 19.74C15.78 19.73 15.65 19.68 15.54 19.58C15.36 19.45 15.25 19.24 15.25 19C15.25 18.59 15.59 18.25 16 18.25H18C18.41 18.25 18.75 18.59 18.75 19C18.75 19.41 18.41 19.75 18 19.75Z" fill="white"/>
<path id="Vector_2" d="M20.9878 6.19V7C20.9878 7.55 20.5378 8 19.9878 8H14.3578C11.7978 8 10.4978 9.31 10.4978 11.88V21C10.4978 21.55 10.0478 22 9.49781 22H7.54781C7.14781 22 6.82781 21.68 6.82781 21.29C6.82781 20.89 7.14781 20.58 7.54781 20.58H9.49781V16.75H5.99781C3.77781 16.64 2.00781 14.81 2.00781 12.56V6.19C2.00781 3.88 3.88781 2 6.20781 2H16.7978C19.1078 2 20.9878 3.88 20.9878 6.19Z" fill="white"/>
</g>
</g>
</svg>
