<svg width="193" height="39" viewBox="0 0 193 39" fill="none" xmlns="http://www.w3.org/2000/svg">
<path d="M41.29 17.842C40.2473 18.9753 39.726 20.4147 39.726 22.16C39.726 23.9053 40.2473 25.3447 41.29 26.478C42.3553 27.5887 43.7153 28.144 45.37 28.144C47.0247 28.144 48.3847 27.5773 49.45 26.444C50.538 25.3107 51.082 23.8713 51.082 22.126C51.082 20.3807 50.538 18.9413 49.45 17.808C48.3847 16.6747 47.0247 16.108 45.37 16.108C43.7153 16.108 42.3553 16.686 41.29 17.842ZM35.986 22.16C35.986 19.4853 36.8813 17.264 38.672 15.496C40.4627 13.7053 42.6953 12.81 45.37 12.81C48.09 12.81 50.334 13.694 52.102 15.462C53.8927 17.23 54.788 19.4513 54.788 22.126C54.788 24.8007 53.8927 27.022 52.102 28.79C50.3113 30.558 48.0673 31.442 45.37 31.442C42.65 31.442 40.406 30.5693 38.638 28.824C36.87 27.0787 35.986 24.8573 35.986 22.16ZM66.5632 12.81V16.55C63.2312 16.55 61.5652 18.8167 61.5652 23.35V31H57.8592V13.252H61.4972V16.04C61.8598 15.1107 62.4945 14.34 63.4012 13.728C64.3078 13.116 65.3618 12.81 66.5632 12.81ZM70.6495 13.252V9.546H74.3215V13.252H77.9255V16.312H74.3215V24.574C74.3215 25.8887 74.5595 26.784 75.0355 27.26C75.5115 27.7133 76.2822 27.94 77.3475 27.94L78.0615 27.906V31.102C77.6309 31.1927 77.0302 31.238 76.2595 31.238C74.2195 31.238 72.7689 30.6147 71.9075 29.368C71.0689 28.1213 70.6495 26.3307 70.6495 23.996V16.312H68.6775V13.252H70.6495ZM82.5309 28.858C80.8309 27.1353 79.9809 24.914 79.9809 22.194C79.9809 19.474 80.8083 17.23 82.4629 15.462C84.1176 13.694 86.1689 12.81 88.6169 12.81C91.2689 12.81 93.3543 13.66 94.8729 15.36C96.3916 17.0373 97.1509 19.2813 97.1509 22.092C97.1509 22.5 97.1396 22.806 97.1169 23.01H83.7549C83.7776 24.574 84.2989 25.832 85.3189 26.784C86.3616 27.736 87.6763 28.212 89.2629 28.212C91.3936 28.212 93.0256 27.3847 94.1589 25.73L96.6069 27.566C96.0403 28.5407 95.1336 29.436 93.8869 30.252C92.6403 31.0453 91.0763 31.442 89.1949 31.442C86.4523 31.442 84.2309 30.5807 82.5309 28.858ZM83.8909 20.46H93.3769C93.3089 19.032 92.8329 17.9213 91.9489 17.128C91.0649 16.312 89.9656 15.904 88.6509 15.904C87.3589 15.904 86.2709 16.3233 85.3869 17.162C84.5029 17.978 84.0043 19.0773 83.8909 20.46ZM111.313 31L106.859 24.642L102.405 31H98.3247L104.751 21.888L98.6987 13.252H102.915L106.859 19.27L110.803 13.252H115.019L108.967 21.888L115.393 31H111.313Z" fill="#8589FF"/>
<path d="M118.132 31V7.2H129.896V10.6H121.906V17.23H128.842V20.596H121.906V27.6H130.236V31H118.132ZM150.757 6.418V31H147.255V28.688C145.827 30.524 143.923 31.442 141.543 31.442C139.004 31.442 136.919 30.5807 135.287 28.858C133.677 27.1127 132.873 24.88 132.873 22.16C132.873 19.3947 133.643 17.1507 135.185 15.428C136.749 13.6827 138.789 12.81 141.305 12.81C142.778 12.81 144.002 13.1273 144.977 13.762C145.974 14.3967 146.665 15.02 147.051 15.632V6.418H150.757ZM147.187 22.194C147.187 20.3127 146.688 18.828 145.691 17.74C144.693 16.652 143.424 16.108 141.883 16.108C140.341 16.108 139.072 16.6747 138.075 17.808C137.1 18.9413 136.613 20.4033 136.613 22.194C136.613 23.9847 137.111 25.4353 138.109 26.546C139.106 27.634 140.375 28.178 141.917 28.178C143.503 28.178 144.773 27.6 145.725 26.444C146.699 25.288 147.187 23.8713 147.187 22.194ZM156.034 35.828L157.224 32.972C158.788 33.8787 160.522 34.332 162.426 34.332C164.081 34.332 165.418 33.9807 166.438 33.278C167.481 32.5753 168.002 31.442 168.002 29.878V28.688C167.775 29.028 167.481 29.368 167.118 29.708C166.778 30.0253 166.155 30.3993 165.248 30.83C164.364 31.238 163.389 31.442 162.324 31.442C159.785 31.442 157.734 30.5807 156.17 28.858C154.606 27.1353 153.824 24.9027 153.824 22.16C153.824 19.4173 154.617 17.1733 156.204 15.428C157.813 13.6827 159.876 12.81 162.392 12.81C163.843 12.81 165.055 13.1273 166.03 13.762C167.027 14.374 167.741 14.9973 168.172 15.632V13.252H171.674V28.654C171.674 31.782 170.835 34.0373 169.158 35.42C167.503 36.8253 165.271 37.528 162.46 37.528C160.103 37.528 157.961 36.9613 156.034 35.828ZM168.104 22.126C168.104 20.3353 167.605 18.8847 166.608 17.774C165.611 16.6633 164.341 16.108 162.8 16.108C161.259 16.108 159.989 16.6747 158.992 17.808C158.017 18.9187 157.53 20.358 157.53 22.126C157.53 23.9167 158.029 25.3673 159.026 26.478C160.023 27.5887 161.293 28.144 162.834 28.144C164.421 28.144 165.69 27.5887 166.642 26.478C167.617 25.3447 168.104 23.894 168.104 22.126ZM177.193 28.858C175.493 27.1353 174.643 24.914 174.643 22.194C174.643 19.474 175.47 17.23 177.125 15.462C178.78 13.694 180.831 12.81 183.279 12.81C185.931 12.81 188.016 13.66 189.535 15.36C191.054 17.0373 191.813 19.2813 191.813 22.092C191.813 22.5 191.802 22.806 191.779 23.01H178.417C178.44 24.574 178.961 25.832 179.981 26.784C181.024 27.736 182.338 28.212 183.925 28.212C186.056 28.212 187.688 27.3847 188.821 25.73L191.269 27.566C190.702 28.5407 189.796 29.436 188.549 30.252C187.302 31.0453 185.738 31.442 183.857 31.442C181.114 31.442 178.893 30.5807 177.193 28.858ZM178.553 20.46H188.039C187.971 19.032 187.495 17.9213 186.611 17.128C185.727 16.312 184.628 15.904 183.313 15.904C182.021 15.904 180.933 16.3233 180.049 17.162C179.165 17.978 178.666 19.0773 178.553 20.46Z" fill="white"/>
<path d="M2.40905 2.95251C2.80857 2.73739 3.51542 2.39933 4.03787 2.1842C4.52959 1.99981 5.4823 1.81541 6.09695 1.81541C6.83453 1.78468 7.87944 2.12274 8.86288 2.64519C9.75412 3.13691 13.104 5.22672 16.3309 7.31653C19.5271 9.37561 23.215 11.6191 24.475 12.2645C25.735 12.8791 27.3331 13.5552 28.0092 13.7396C28.6853 13.924 30.099 14.0777 31.1439 14.0777C32.2196 14.0777 33.4489 13.924 33.9099 13.7704C34.4016 13.586 34.8011 13.4938 34.8626 13.5245C34.8933 13.586 34.4631 14.3235 33.9099 15.1533C33.2645 16.106 32.3425 16.9665 31.5127 17.3968C30.3756 18.0114 29.7917 18.1036 27.8556 18.0114C25.9194 17.95 25.1818 17.7348 23.4301 16.8436C22.293 16.2597 19.65 14.5079 17.5909 12.9713C15.5626 11.404 12.6737 9.09901 11.1678 7.80825C8.92434 5.84137 8.30969 5.47258 7.41845 5.47258C6.74233 5.47258 6.03549 5.74917 5.4823 6.17943C5.02131 6.57895 4.52959 7.31653 4.40666 7.80825C4.22227 8.48436 4.3452 9.06828 4.92912 10.2361C5.32864 11.0966 6.65014 13.0328 7.81797 14.5387C8.98581 16.0753 11.0449 18.3495 12.3664 19.6095C13.7186 20.8696 15.5933 22.4062 16.4845 23.0208C17.4065 23.6355 18.9431 24.4038 19.8651 24.7419C20.7871 25.0799 22.3237 25.4487 23.2457 25.5716C24.1677 25.6638 25.6736 25.6638 26.5341 25.5409C27.4253 25.3872 28.1629 25.3258 28.1629 25.3872C28.1629 25.418 27.1794 27.139 26.0116 29.2288C24.813 31.2879 23.3686 33.4392 22.7847 33.9923C22.2008 34.5148 21.1559 35.1294 20.4798 35.2831C19.8036 35.4675 18.728 35.4982 18.0826 35.3753C17.468 35.2524 16.5153 34.8836 16.0236 34.5148C15.5011 34.1767 14.5791 33.0704 13.9337 32.0562C13.2884 31.042 10.1229 25.9404 6.896 20.6852C3.69982 15.4606 0.841693 10.7586 0.595833 10.2361C0.319241 9.7444 0.104113 8.63803 0.104113 7.77752C0.0733806 6.67115 0.319241 5.84137 0.903158 4.79646C1.36415 3.96669 2.04026 3.13691 2.40905 2.95251Z" fill="url(#paint0_linear_1_829)"/>
<circle cx="31.1438" cy="4.9172" r="4.9172" fill="#FFB569"/>
<defs>
<linearGradient id="paint0_linear_1_829" x1="30" y1="18.9999" x2="3.5" y2="1.99991" gradientUnits="userSpaceOnUse">
<stop stop-color="#8589FF"/>
<stop offset="0.556911" stop-color="#EB4670"/>
<stop offset="1" stop-color="#FFB569"/>
</linearGradient>
</defs>
</svg>
