<svg width="24" height="24" viewBox="0 0 24 24" fill="none" xmlns="http://www.w3.org/2000/svg">
<g id="vuesax/bold/search-normal">
<g id="search-normal">
<path id="Subtract" fill-rule="evenodd" clip-rule="evenodd" d="M21 11.5C21 16.7467 16.7467 21 11.5 21C6.25329 21 2 16.7467 2 11.5C2 6.25329 6.25329 2 11.5 2C16.7467 2 21 6.25329 21 11.5ZM9 8C8.45 8 8 8.45 8 9C8 9.55 8.45 10 9 10C9.56 10 10 9.55 10 9C10 8.45 9.55 8 9 8ZM9 15.75C9.19 15.75 9.38 15.68 9.53 15.53L15.53 9.53C15.82 9.24 15.82 8.76 15.53 8.47C15.24 8.18 14.76 8.18 14.47 8.47L8.47 14.47C8.18 14.76 8.18 15.24 8.47 15.53C8.62 15.68 8.81 15.75 9 15.75ZM13.99 15C13.99 15.55 14.44 16 15 16C15.55 16 15.99 15.55 15.99 15C15.99 14.45 15.54 14 14.99 14C14.44 14 13.99 14.45 13.99 15Z" fill="white"/>
<path id="Vector" d="M21.3025 22.0001C21.1225 22.0001 20.9425 21.9301 20.8125 21.8001L18.9525 19.9401C18.6825 19.6701 18.6825 19.2301 18.9525 18.9501C19.2225 18.6801 19.6625 18.6801 19.9425 18.9501L21.8025 20.8101C22.0725 21.0801 22.0725 21.5201 21.8025 21.8001C21.6625 21.9301 21.4825 22.0001 21.3025 22.0001Z" fill="white"/>
</g>
</g>
</svg>
